<?xml version="1.0" encoding="utf-8"?>
<!-- Generator: Adobe Illustrator 26.3.1, SVG Export Plug-In . SVG Version: 6.00 Build 0)  -->
<svg version="1.1" id="Layer_1" xmlns="http://www.w3.org/2000/svg" xmlns:xlink="http://www.w3.org/1999/xlink" x="0px" y="0px"
	 viewBox="0 0 143.3 211.6" style="enable-background:new 0 0 143.3 211.6;" xml:space="preserve">
<style type="text/css">
	.st0{fill:#FED8B3;}
	.st1{fill:#F38599;}
	.st2{fill:#FFFFFF;}
	.st3{fill:#00BFDF;}
	.st4{fill:#F47839;}
	.st5{fill:#F47B6A;}
	.st6{fill:#F5EFE2;}
</style>
<g>
	<g>
		<path d="M84,152.4c-0.6,0-1.2,0-1.8-0.1c-0.4,0-0.8-0.4-0.7-0.8c0-0.4,0.4-0.8,0.8-0.7c7.3,0.5,14-2,19.9-7.4
			c4.4-4,6.7-8.2,6.7-8.3c0.2-0.4,0.7-0.5,1.1-0.3c0.4,0.2,0.5,0.7,0.3,1.1c-0.1,0.2-2.4,4.5-7,8.7C99.3,148.2,92.8,152.4,84,152.4z
			"/>
		<path d="M106.1,142.9c-1.2,0-2.3-0.4-3.2-1.4c-2.9-3.3,0.3-8.4,0.4-8.7c0.2-0.4,0.7-0.5,1.1-0.2c0.4,0.2,0.5,0.7,0.2,1.1
			c0,0.1-2.7,4.4-0.6,6.8c2.1,2.4,7.7-1.3,7.8-1.4c0.4-0.2,0.8-0.2,1.1,0.2c0.2,0.4,0.2,0.8-0.2,1.1
			C112.6,140.6,109.2,142.9,106.1,142.9z"/>
	</g>
	<g>
		<g>
			<g>
				<g>
					<g>
						<path class="st0" d="M66.4,143.7c0,0-0.8,4.6-0.9,5.7c1.6,0.3,2.9,0.5,4.1,0.6c0,0,6.8,4.7,1.1,10.1
							c-3.8,3.6-18.4,1.5-20.2-3.4c-2.4-6.5,5.5-8.6,5.5-8.6s1.3,0.2,3.7,0.6c0.2-2.2,1-5.6,1-5.6L66.4,143.7z"/>
						<path d="M63.9,162.7c-2,0-4.1-0.3-5.9-0.7c-4.4-1-7.4-2.8-8.2-5.1c-0.7-1.9-0.7-3.7,0.1-5.3c1.6-3.2,5.7-4.3,5.9-4.3
							c0.1,0,0.2,0,0.3,0c0,0,1,0.2,2.9,0.5c0.3-2.1,0.9-4.7,0.9-4.9c0.1-0.4,0.5-0.7,0.9-0.6l5.6,0.6c0.2,0,0.4,0.1,0.5,0.3
							c0.1,0.2,0.2,0.4,0.1,0.6c0,0-0.6,3.3-0.8,4.9c1.3,0.3,2.3,0.4,3.3,0.5c0.1,0,0.3,0.1,0.4,0.1c0.1,0.1,3.4,2.4,3.7,5.8
							c0.2,1.9-0.7,3.8-2.5,5.5C69.7,162.1,66.9,162.7,63.9,162.7z M56.1,148.9c-0.7,0.2-3.6,1.3-4.8,3.5c-0.6,1.2-0.6,2.5-0.1,4
							c0.6,1.7,3.3,3.2,7.1,4.1c5,1.1,10.1,0.7,11.8-1c1.4-1.4,2.1-2.8,2-4.3c-0.2-2.3-2.3-4-2.8-4.5c-1.1-0.1-2.3-0.3-4-0.6
							c-0.4-0.1-0.7-0.5-0.6-0.9c0.1-0.8,0.5-3.5,0.8-4.9l-4.1-0.4c-0.2,1.1-0.7,3.3-0.8,4.8c0,0.2-0.1,0.4-0.3,0.5
							c-0.2,0.1-0.4,0.2-0.6,0.2C57.8,149.2,56.6,149,56.1,148.9z"/>
					</g>
				</g>
			</g>
		</g>
	</g>
	<g>
		<g>
			<path class="st1" d="M82.3,151.6c-6.4-0.5-9.6-1.1-12.7-1.6c-2.1,10.6-16.2,7.7-13.6-1.9c-5-0.8-9.4-2.1-12-3
				c-1.7,0.8-5,9.6-5,12.3c0,0.3,7.8,1.9,9.2,2.6c-2.3,8.3-9.8,25-10.3,32.8c8.8,7.3,36.2,4.8,43.5,1.7c-0.5-4.1-7.8-24.2-6.5-30.1
				c0.1-0.3,4.2,0.1,7.6-0.4C82.8,162.6,82.7,154.7,82.3,151.6z"/>
			<path d="M59.4,198.4c-6.4,0-16.8-0.7-21.9-4.9c-0.2-0.2-0.3-0.4-0.3-0.7c0.3-5.1,3.6-13.9,6.4-21.6c1.5-4,2.9-7.8,3.7-10.7
				c-1.1-0.3-3-0.8-4.6-1.2c-1-0.3-2-0.5-2.7-0.7c-1.2-0.3-1.7-0.5-1.7-1.2c0-2.9,3.3-12,5.5-13c0.2-0.1,0.4-0.1,0.6,0
				c1.2,0.4,5.5,2,11.8,3c0.2,0,0.4,0.2,0.5,0.4c0.1,0.2,0.2,0.4,0.1,0.6c-0.7,2.4-0.2,4.6,1.3,6c1.5,1.5,3.9,2,6.1,1.3
				c1.4-0.4,3.9-1.8,4.7-5.8c0.1-0.4,0.5-0.7,0.9-0.6c3.1,0.5,6.3,1.1,12.6,1.6c0.4,0,0.7,0.3,0.7,0.7c0.4,3.1,0.5,11.1,0.2,12.7
				c-0.1,0.3-0.3,0.6-0.7,0.7c-2,0.3-4.3,0.3-5.8,0.3c-0.4,0-0.9,0-1.2,0c-0.5,4.2,2.5,14.3,4.5,21.1c1.1,3.8,2,6.8,2.2,8.2
				c0,0.4-0.2,0.7-0.5,0.8c-4,1.7-13.1,3-21.5,3.1C60,198.4,59.7,198.4,59.4,198.4z M38.8,192.5c3.8,2.9,11.4,4.4,21.5,4.3
				c8.7-0.1,16.7-1.4,20.3-2.7c-0.3-1.5-1.1-4.2-2-7.3c-2.4-8.1-5.3-18.2-4.4-22.4c0.1-0.7,0.9-0.7,1.3-0.7c0.4,0,0.8,0,1.4,0
				c1.4,0,3.2,0,4.9-0.2c0.1-2.1,0.1-8-0.2-11.1c-5.4-0.5-8.6-0.9-11.4-1.4c-0.8,3.1-2.8,5.4-5.6,6.3c-2.7,0.8-5.7,0.2-7.6-1.7
				c-1.7-1.7-2.4-4.1-1.9-6.7c-3.9-0.7-7.9-1.7-10.9-2.8c-1.3,1.3-4,7.9-4.3,10.9c0.7,0.2,2.1,0.6,3.2,0.8c2.8,0.7,4.8,1.2,5.5,1.6
				c0.4,0.2,0.5,0.6,0.4,0.9c-0.8,3-2.4,7.1-4,11.5C42.3,179.1,39.2,187.5,38.8,192.5z M39.8,157.4
				C39.8,157.4,39.8,157.4,39.8,157.4C39.8,157.4,39.8,157.4,39.8,157.4z"/>
		</g>
		<circle class="st2" cx="48.4" cy="152.4" r="1.7"/>
		
			<ellipse transform="matrix(0.2298 -0.9732 0.9732 0.2298 -94.4735 197.2834)" class="st2" cx="77.4" cy="158.3" rx="1.7" ry="1.7"/>
		
			<ellipse transform="matrix(0.2298 -0.9732 0.9732 0.2298 -104.5476 188.4199)" class="st2" cx="66.8" cy="160.3" rx="1.7" ry="1.7"/>
		
			<ellipse transform="matrix(0.2298 -0.9732 0.9732 0.2298 -116.4309 176.7355)" class="st2" cx="53.4" cy="161.9" rx="1.7" ry="1.7"/>
		
			<ellipse transform="matrix(0.2298 -0.9732 0.9732 0.2298 -119.8549 189.6356)" class="st2" cx="59.9" cy="170.5" rx="1.7" ry="1.7"/>
		<circle class="st2" cx="71.3" cy="177" r="1.7"/>
		
			<ellipse transform="matrix(0.2298 -0.9732 0.9732 0.2298 -132.4617 179.9634)" class="st2" cx="47.5" cy="173.7" rx="1.7" ry="1.7"/>
		<circle class="st2" cx="43.2" cy="188.9" r="1.7"/>
		<circle class="st2" cx="56.6" cy="180.3" r="1.7"/>
		
			<ellipse transform="matrix(0.2298 -0.9732 0.9732 0.2298 -130.5005 206.3225)" class="st2" cx="65.1" cy="185.6" rx="1.7" ry="1.7"/>
		<circle class="st2" cx="75.7" cy="191.2" r="1.7"/>
		<circle class="st2" cx="55.1" cy="192.8" r="1.7"/>
	</g>
	<path d="M74.1,204.5c-0.4,0-0.7,0-1.1-0.1c-3.2-0.5-5.6-3.4-6-7.1c0-0.4,0.3-0.8,0.7-0.9c0.4,0,0.8,0.3,0.9,0.7
		c0.3,3.1,2.2,5.4,4.7,5.8c4.4,0.7,9.2-4,13-12.6c0.2-0.4,0.6-0.6,1-0.4c0.4,0.2,0.6,0.6,0.4,1C84,199.5,78.9,204.5,74.1,204.5z"/>
	<g>
		<path class="st3" d="M87,190.4c2.7,5.9,3.7,13.9,6.5,12.1C99.1,198.8,91.3,183.1,87,190.4z"/>
		<path d="M92.7,203.5c-0.2,0-0.5,0-0.6-0.1c-1.6-0.6-2.5-3.2-3.6-6.8c-0.6-1.9-1.3-4-2.2-5.9c-0.1-0.2-0.1-0.5,0-0.7
			c1.3-2.2,2.8-2.4,3.8-2.2c2.7,0.5,5.1,4.4,5.9,8c0.7,3.4-0.1,6.1-2.1,7.4C93.5,203.4,93.1,203.5,92.7,203.5z M87.9,190.4
			c0.8,1.9,1.5,3.9,2.1,5.7c0.8,2.6,1.8,5.5,2.7,5.8c0.1,0,0.2,0.1,0.5-0.1c2-1.3,1.7-4.4,1.4-5.7c-0.7-3.4-2.8-6.5-4.6-6.8
			C89.2,189.2,88.5,189.5,87.9,190.4z"/>
	</g>
	<path d="M55.2,206.7c-0.3,0-0.6,0-0.9-0.1c-3.1-0.5-5.4-4-6-9c0-0.4,0.3-0.8,0.7-0.9c0.4,0,0.8,0.3,0.9,0.7
		c0.5,4.3,2.3,7.2,4.7,7.6c2.8,0.5,6-2.5,8.7-8c0.2-0.4,0.7-0.6,1.1-0.4c0.4,0.2,0.6,0.7,0.4,1.1C61.9,203.5,58.5,206.7,55.2,206.7z
		"/>
	<g>
		<path d="M43.2,145.8c-0.1,0-0.2,0-0.3,0c-9.3-3.4-14.7-9.3-17.5-13.6c-3.1-4.7-4-8.6-4.1-8.7c-0.1-0.4,0.2-0.8,0.6-0.9
			c0.4-0.1,0.8,0.2,0.9,0.6l0,0c0,0,0.9,3.8,3.9,8.3c2.7,4.1,7.9,9.7,16.7,13c0.4,0.1,0.6,0.6,0.5,1
			C43.8,145.6,43.5,145.8,43.2,145.8z"/>
		<path d="M23.6,131.4c-3.9,0-6.7-5.2-6.8-5.4c-0.2-0.4-0.1-0.9,0.3-1.1c0.4-0.2,0.9-0.1,1.1,0.3c0,0.1,2.5,4.6,5.5,4.6
			c0.4,0,0.7-0.1,1.1-0.2c1.8-0.7,2.2-5.1,2.2-6.5c0-0.4,0.4-0.8,0.8-0.8c0,0,0,0,0,0c0.4,0,0.8,0.4,0.8,0.8c0,0.7-0.1,6.7-3.2,8
			C24.7,131.3,24.1,131.4,23.6,131.4z"/>
	</g>
</g>
<path class="st3" d="M5.5,80.6c0.9,5.7,8.6,5.3,11.1-2.5c-1.3-1.8-0.8-1.8-0.8-1.8C14.6,75.5,4.6,74.9,5.5,80.6"/>
<path class="st1" d="M4.7,80.7c-0.3-1.8,0.3-3.2,1.8-4.2c2.9-2,8.7-1.6,9.7-1c0.3,0.2,0.5,0.5,0.4,0.8c0,0,0,0,0,0.1
	c0.1,0.2,0.3,0.5,0.7,1.2c0.1,0.2,0.2,0.5,0.1,0.7c-1.6,4.8-4.9,6.9-7.7,6.9c-0.1,0-0.3,0-0.4,0C6.9,85,5.1,83.3,4.7,80.7"/>
<path d="M15.9,77L15.9,77C15.9,77,15.9,77,15.9,77z"/>
<g>
	<path class="st3" d="M24.9,72c1.2,0.7,11.7,0.7,10.8-4.9c-0.9-5.7-8.9-4.1-11.4,3.7C24.9,72,24.9,72,24.9,72z"/>
	<path d="M27.4,73c-1.4,0-2.5-0.2-2.9-0.4c-0.1-0.1-0.2-0.2-0.3-0.3l-0.6-1.2c-0.1-0.2-0.1-0.4-0.1-0.6c1.7-5.3,5.8-7.9,8.9-7.6
		c2.2,0.2,3.7,1.7,4.1,4c0.3,1.8-0.4,3.3-1.9,4.4C32.6,72.6,29.6,73,27.4,73z M25.4,71.3c1.1,0.3,5.9,0.4,8.3-1.4
		c1-0.7,1.3-1.6,1.2-2.8c-0.3-1.6-1.2-2.6-2.6-2.7c-2.4-0.2-5.6,1.9-7.1,6.2L25.4,71.3z"/>
</g>
<g>
	<path class="st4" d="M51.2,84.1c-0.3-0.3-5.7-5-12.2,0.6c0.5-2.9-4.8-5-7.1-2.2c0.9-3.3-1.5-5-4.8-3.8c2.3-2.5,0.1-5.9-2.3-5.4
		c-2.1-3.3-2.2-9.4,0.4-14.6c-2.5,0.7-7.3,6.5-7.3,6.5s-2.9-3-3.6-7.1c-3.6,5.5-3.2,14.4,4.5,20.9c-1.5,2,0.9,4.5,4.3,3.9
		c-2.1,3.5,2.2,6.7,5.4,4.3c0.3,5.2,5.5,5.9,7.6,3.3c1.2,4.9,6,8.8,10,7.5C48,93.3,51.2,84.1,51.2,84.1z"/>
	<path d="M44.5,99.1c-1.2,0-2.5-0.4-3.7-1c-2.3-1.3-4.1-3.5-5.1-6.1c-1.2,0.9-2.9,1.1-4.4,0.6c-1.8-0.6-3-2.1-3.5-4.1
		c-1.8,0.8-3.7,0.2-4.8-0.7c-1.2-1-1.6-2.5-1.2-3.9c-1.6-0.1-3.1-0.8-3.8-1.9c-0.5-0.8-0.6-1.8-0.2-2.7c-7.5-6.8-7.8-15.9-4.1-21.5
		c0.2-0.3,0.5-0.4,0.8-0.3c0.3,0.1,0.6,0.3,0.6,0.6c0.5,2.7,2,5,2.9,6c1.4-1.7,4.9-5.5,7.1-6c0.3-0.1,0.6,0,0.8,0.3
		c0.2,0.2,0.2,0.6,0.1,0.9c-2.5,5.1-2.2,10.5-0.7,13.4c0,0,0,0,0,0c1.2,0,2.4,0.7,3,1.9c0.5,0.8,0.7,2,0.4,3.1
		c1.2-0.1,2.3,0.2,3.1,0.9c0.7,0.6,1,1.4,1.1,2.4c1.4-0.6,3.1-0.5,4.4,0.1c1.2,0.5,2,1.3,2.3,2.3c3.2-2.3,6.1-2.2,8-1.8
		c2.3,0.5,3.9,1.9,4.2,2.2c0.2,0.2,0.3,0.5,0.2,0.8c0,0.1-3.3,9.3-5.1,14c-0.1,0.2-0.3,0.4-0.5,0.5C45.8,99,45.2,99.1,44.5,99.1z
		 M36.1,89.8c0.1,0,0.1,0,0.2,0c0.3,0.1,0.5,0.3,0.6,0.6c0.7,2.6,2.5,5.1,4.7,6.3c1,0.5,2.4,1.1,4,0.7c1.6-4.1,4.1-11.1,4.8-13
		c-1.2-0.9-5.6-3.5-10.8,0.9c-0.3,0.2-0.6,0.3-0.9,0.1c-0.3-0.2-0.4-0.5-0.4-0.8c0.2-1-0.7-1.8-1.6-2.2c-1.3-0.6-3.1-0.6-4.1,0.7
		c-0.2,0.3-0.6,0.4-1,0.2c-0.3-0.2-0.5-0.5-0.4-0.9c0.3-1.2,0.2-2.2-0.4-2.7c-0.7-0.6-1.9-0.7-3.4-0.1c-0.3,0.1-0.7,0-0.9-0.3
		c-0.2-0.3-0.2-0.7,0.1-1c1.2-1.3,0.6-2.6,0.4-3c-0.4-0.7-1.1-1.2-2-1.1c-0.3,0.1-0.7-0.1-0.8-0.3c-2-3.2-2.2-8.4-0.6-13.2
		c-1.7,1.4-3.8,3.6-5,5.1c-0.1,0.2-0.4,0.3-0.6,0.3c-0.2,0-0.4-0.1-0.6-0.2c-0.1-0.1-2.2-2.3-3.3-5.5c-2.3,5.2-1.3,12.6,5.2,18.2
		c0.3,0.3,0.4,0.7,0.1,1.1c-0.5,0.6-0.3,1.2-0.1,1.5c0.5,0.8,1.8,1.4,3.6,1.1c0.3-0.1,0.6,0.1,0.8,0.3c0.2,0.3,0.2,0.6,0,0.9
		c-0.7,1.2-0.6,2.4,0.4,3.2c0.9,0.8,2.4,1.1,3.9,0c0.2-0.2,0.5-0.2,0.8-0.1c0.3,0.1,0.4,0.4,0.5,0.7c0.1,2,1,3.4,2.5,3.9
		c1.3,0.4,2.8,0,3.7-1C35.6,89.9,35.8,89.8,36.1,89.8z"/>
</g>
<g>
	<path class="st3" d="M26.4,73.6c0,0-1-4.2-3.4-4.2c-5.6,1.8-7.8,4.9-7.8,4.9s-0.5,4.3,3.7,4.8C19.5,77.9,26.4,73.6,26.4,73.6z"/>
	<path d="M18.8,79.9C18.8,79.9,18.8,79.9,18.8,79.9c-1.5-0.2-2.7-0.8-3.4-1.7c-1.3-1.7-1.1-3.8-1-3.9c0-0.1,0.1-0.3,0.1-0.4
		c0.1-0.1,2.4-3.3,8.2-5.2c0.1,0,0.2,0,0.2,0c2.9,0,4.1,4.3,4.2,4.8c0.1,0.3-0.1,0.7-0.3,0.9c-3.2,2-6.9,4.6-7.3,5.2
		C19.4,79.8,19.1,79.9,18.8,79.9z M15.9,74.7c0,0.8,0.1,3.1,2.6,3.6c1.3-1.4,5.1-3.9,6.9-5c-0.4-1.1-1.2-2.9-2.4-3
		C18.6,71.7,16.4,74,15.9,74.7z"/>
</g>
<g>
	<g>
		<path class="st3" d="M133.1,94.5c1.3-0.4,11.2,1.3,9.1,6.6s-9.6,3.2-10.3-5C133.5,94.7,133.1,94.5,133.1,94.5z"/>
		<path d="M138.2,104.8c-0.3,0-0.5,0-0.8-0.1c-2.8-0.4-5.9-3.2-6.3-8.6c0-0.2,0.1-0.5,0.3-0.7c0.6-0.5,0.8-0.8,0.9-1c0,0,0,0,0-0.1
			c0-0.3,0.2-0.6,0.6-0.7c1.2-0.3,6.9,0.5,9.3,3.2c1.2,1.3,1.4,2.9,0.7,4.5C142,103.6,140.3,104.8,138.2,104.8z M132.7,96.4
			c0.5,4.2,2.9,6.4,5,6.8c1.6,0.3,3.1-0.6,3.8-2.4c0.4-1.1,0.3-2-0.4-2.8c-1.7-1.9-5.8-2.7-7.3-2.8C133.5,95.6,133.2,96,132.7,96.4z
			 M132.8,95.3L132.8,95.3L132.8,95.3z M132.8,95.3L132.8,95.3L132.8,95.3z"/>
	</g>
	<g>
		<path class="st3" d="M125.3,88.3c-1.3,0.4-11.5-2-9.4-7.3c2.2-5.3,9.6-1.9,10.2,6.2C125.3,88.3,125.3,88.3,125.3,88.3z"/>
		<path d="M124.9,89.1c-1.9,0-6.7-1.2-8.9-3.7c-1.3-1.4-1.6-3-0.9-4.7c0.9-2.2,2.7-3.3,4.9-3c3.1,0.5,6.4,3.9,6.9,9.5
			c0,0.2-0.1,0.4-0.2,0.6l-0.9,1c-0.1,0.1-0.2,0.2-0.4,0.2C125.3,89.1,125.1,89.1,124.9,89.1z M125.3,88.3L125.3,88.3L125.3,88.3z
			 M119.3,79.3c-1.2,0-2.1,0.7-2.7,2.1c-0.4,1.1-0.3,2,0.5,3c1.9,2.3,6.5,3.3,7.7,3.3c0,0,0,0,0,0l0.5-0.5c-0.5-4.5-3.2-7.3-5.5-7.7
			C119.7,79.3,119.5,79.3,119.3,79.3z"/>
	</g>
	<g>
		<path class="st4" d="M96.8,94.1c0.3-0.2,6.7-3.6,11.8,3.4c0.2-2.9,5.8-3.8,7.4-0.5c-0.1-3.4,2.6-4.6,5.6-2.6
			c-1.7-2.9,1.3-5.7,3.4-4.7c2.8-2.7,4.3-8.6,3-14.3c2.3,1.2,5.6,8,5.6,8s3.5-2.2,5.2-6.1c2.3,6.2-0.2,14.7-9.1,19.3
			c1,2.3-1.9,4.1-5,2.8c1.2,3.9-3.6,6-6.2,2.9c-1.4,5-6.7,4.5-8.2,1.5c-2.3,4.5-7.8,7.2-11.5,5C97.9,103.8,96.8,94.1,96.8,94.1z"/>
		<path d="M101.5,110.4c-1.2,0-2.3-0.3-3.3-0.9c-0.2-0.1-0.3-0.3-0.4-0.6c-0.7-5-1.8-14.7-1.8-14.8c0-0.3,0.1-0.6,0.3-0.7
			c0.3-0.2,2.2-1.2,4.5-1.2c0,0,0,0,0,0c2,0,4.8,0.7,7.4,3.6c0.6-0.8,1.5-1.4,2.8-1.7c1.4-0.3,3.1-0.1,4.3,0.9
			c0.3-0.9,0.8-1.6,1.6-2c0.9-0.5,2-0.6,3.2-0.2c-0.1-1.2,0.4-2.3,1.1-3c0.9-1,2.2-1.4,3.4-1.1c2.2-2.5,3.7-7.7,2.4-13.2
			c-0.1-0.3,0-0.6,0.3-0.8c0.2-0.2,0.6-0.2,0.9-0.1c2,1.1,4.5,5.6,5.5,7.5c1.1-0.8,3-2.7,4.2-5.2c0.1-0.3,0.4-0.5,0.7-0.5
			c0.3,0,0.6,0.2,0.7,0.5c2.3,6.3,0,15.1-8.9,20c0.2,0.9-0.1,1.8-0.8,2.5c-1,1-2.6,1.3-4.2,1c0,1.5-0.7,2.8-2.1,3.5
			c-1.3,0.7-3.2,0.8-4.8-0.4c-0.9,1.9-2.4,3-4.3,3.2c-1.6,0.1-3.1-0.5-4.1-1.6c-1.5,2.3-3.9,4-6.3,4.8
			C103,110.3,102.2,110.4,101.5,110.4z M99.3,108.4c1.4,0.7,3,0.5,4,0.2c2.5-0.7,4.8-2.7,6-5.1c0.1-0.3,0.4-0.4,0.7-0.4
			c0.3,0,0.6,0.2,0.7,0.5c0.6,1.2,1.9,2,3.3,1.8c1.6-0.1,2.8-1.3,3.4-3.2c0.1-0.3,0.3-0.5,0.6-0.6c0.3-0.1,0.6,0,0.8,0.3
			c1.1,1.4,2.7,1.4,3.8,0.9c1.1-0.6,1.5-1.7,1.1-3c-0.1-0.3,0-0.6,0.2-0.8c0.2-0.2,0.6-0.3,0.8-0.1c1.6,0.7,3.1,0.4,3.7-0.3
			c0.3-0.3,0.6-0.8,0.3-1.5c-0.2-0.4,0-0.8,0.4-1c7.7-4,10.3-11,9.3-16.5c-1.8,2.9-4.4,4.6-4.5,4.6c-0.2,0.1-0.4,0.2-0.6,0.1
			c-0.2-0.1-0.4-0.2-0.5-0.4c-0.9-1.8-2.4-4.4-3.7-6.1c0.5,5-0.9,10-3.6,12.7c-0.2,0.2-0.6,0.3-0.9,0.2c-0.8-0.4-1.6,0-2.1,0.6
			c-0.3,0.3-1.2,1.4-0.3,3c0.2,0.3,0.1,0.7-0.1,1c-0.3,0.2-0.7,0.3-1,0.1c-1.3-0.8-2.5-1.1-3.3-0.6c-0.7,0.4-1.1,1.3-1,2.5
			c0,0.4-0.2,0.7-0.6,0.8c-0.4,0.1-0.7-0.1-0.9-0.4c-0.7-1.5-2.5-1.8-3.8-1.6c-0.9,0.2-2,0.8-2,1.8c0,0.3-0.2,0.6-0.6,0.7
			c-0.3,0.1-0.7,0-0.9-0.3c-4-5.5-8.9-4-10.3-3.4C97.9,96.6,98.7,104,99.3,108.4z"/>
	</g>
	<g>
		<path class="st3" d="M123.4,89.6c0,0,2-3.8,4.3-3.3c5.1,3,6.5,6.5,6.5,6.5s-0.5,4.3-4.7,3.8C129.1,95.3,123.4,89.6,123.4,89.6z"/>
		<path d="M130.2,97.5c-0.2,0-0.5,0-0.7,0c-0.3,0-0.6-0.3-0.7-0.6c-0.2-0.7-3.2-4.1-5.9-6.8c-0.2-0.2-0.3-0.6-0.1-0.9
			c0.2-0.4,2.3-4.3,5.2-3.7c0.1,0,0.2,0,0.2,0.1c5.2,3.1,6.8,6.8,6.8,6.9c0,0.1,0.1,0.3,0.1,0.4c0,0.1-0.3,2.3-1.9,3.6
			C132.3,97.2,131.3,97.5,130.2,97.5z M130,95.9c0,0,0.1,0,0.1,0c2.5,0,3.1-2.2,3.2-2.9c-0.4-0.7-1.9-3.5-6-5.9
			c-1.2-0.2-2.4,1.4-3,2.4C125.9,91,129.1,94.3,130,95.9z"/>
	</g>
</g>
<g>
	<g>
		<g>
			<path class="st4" d="M103.4,113.7c-3.7,18.7-20.8,28.3-38.8,24.8c-18-3.6-30.2-18.9-26.5-37.7C41.8,82,59.3,70.4,77.3,74
				C95.4,77.5,107.1,94.9,103.4,113.7z"/>
			<path d="M72,140c-2.5,0-5-0.2-7.6-0.8c-9.1-1.8-16.9-6.6-21.9-13.5c-5.2-7.1-7-16-5.2-25.2c1.8-9.2,7-17.1,14.6-22.3
				c7.5-5.1,16.6-6.9,25.6-5.2c9,1.8,16.7,6.9,21.7,14.5c5.1,7.6,6.8,16.9,5,26.1l0,0c-1.8,9.1-6.9,16.7-14.4,21.3
				C84.5,138.3,78.4,140,72,140z M70.8,74.1c-6.4,0-12.6,1.9-18,5.5c-7.2,4.9-12.2,12.4-13.9,21.3c-1.7,8.7,0,17.2,5,23.9
				c4.8,6.6,12.2,11.1,20.9,12.8c8.7,1.7,17.3,0.3,24.2-3.9c7.1-4.4,12-11.5,13.7-20.2l0,0c1.7-8.8,0-17.7-4.8-25
				c-4.8-7.2-12.1-12.1-20.7-13.8C75,74.3,72.9,74.1,70.8,74.1z"/>
		</g>
		<g>
			<path class="st0" d="M97.2,123.3c-3.3,16.5-18.3,25-34.2,21.8c-15.9-3.1-26.6-16.7-23.3-33.2c3.3-16.5,18.7-26.7,34.6-23.6
				C90.1,91.4,100.5,106.7,97.2,123.3z"/>
			<path d="M69.5,146.5c-2.2,0-4.4-0.2-6.7-0.7c-8-1.6-14.9-5.8-19.3-11.9c-4.6-6.3-6.2-14.2-4.6-22.2c1.6-8.2,6.2-15.1,12.9-19.7
				c6.7-4.5,14.7-6.1,22.6-4.6c7.9,1.6,14.7,6.1,19.2,12.8c4.5,6.7,6,14.9,4.4,23.1l-0.8-0.2l0.8,0.2c-1.6,8.1-6.1,14.7-12.7,18.8
				C80.6,145,75.2,146.5,69.5,146.5z M68.4,88.5c-5.6,0-11.1,1.7-15.8,4.9c-6.3,4.3-10.7,10.9-12.2,18.7c-1.5,7.6,0,15.1,4.3,21
				c4.2,5.8,10.7,9.8,18.4,11.3c2.2,0.4,4.4,0.7,6.5,0.7c13.3,0,24.1-8.5,26.8-21.8c1.5-7.7,0-15.5-4.2-21.9
				C88,94.8,81.6,90.5,74.1,89C72.2,88.7,70.3,88.5,68.4,88.5z"/>
		</g>
		<g>
			<g>
				
					<ellipse transform="matrix(0.7149 -0.6992 0.6992 0.7149 -69.6638 68.6053)" class="st5" cx="49.3" cy="119.7" rx="4.4" ry="4.4"/>
			</g>
		</g>
		<g>
			<g>
				
					<ellipse transform="matrix(0.8114 -0.5845 0.5845 0.8114 -58.4227 73.8901)" class="st5" cx="85.3" cy="127.5" rx="4.4" ry="4.4"/>
			</g>
		</g>
		<path d="M87.5,119.4c-0.2,0-0.6-0.1-0.8-0.7c-0.4-1.5-1.3-3.2-3.4-3.5c-1.5-0.2-2.9,0.6-4.3,2.4c-0.1,0.2-0.5,0.6-1,0.4
			c-0.3-0.1-0.5-0.5-0.5-0.8c0-0.2,0.1-0.3,0.2-0.5c0,0,0,0,0,0c2.1-2.9,4.3-3.3,5.8-3.1c2.2,0.3,3.9,2,4.7,4.7c0,0,0,0,0,0
			c0.1,0.1,0.1,0.3,0.1,0.4C88.3,119.1,88,119.4,87.5,119.4C87.6,119.4,87.6,119.4,87.5,119.4z"/>
		<path d="M67.4,138.1c-1.2,0-2.3-0.1-3.3-0.3c-5-1.1-9-4-11.8-8.6c-2.2-3.7-3-7.3-3.3-8.7c0-0.1,0-0.2-0.1-0.3
			c-0.1-0.2-0.1-0.4-0.1-0.6c0.1-0.4,0.4-0.6,0.8-0.6c0,0,0,0,0,0c0.7,0,0.8,0.6,0.9,1.1c2,9,6.8,14.6,13.9,16.1
			c4.5,1,11.5,0.1,19.1-9.1c0.5-0.6,0.8-1,1.4-0.7c0.3,0.2,0.5,0.5,0.4,0.9c0,0.2-0.2,0.4-0.4,0.5c-0.1,0.1-0.2,0.2-0.3,0.3
			C78.3,136,72.2,138.1,67.4,138.1z M83.8,127L83.8,127L83.8,127z"/>
		<path d="M70.8,119.3c-0.2,0-0.6-0.1-0.8-0.6c-0.2-0.8-0.7-1.3-1.3-1.4c-0.5-0.1-1.1,0.2-1.6,1c-0.4,0.5-0.9,0.4-1,0.3
			c-0.3-0.1-0.5-0.5-0.5-0.8c0-0.2,0.1-0.3,0.2-0.4c1.1-1.5,2.3-1.7,3.1-1.6c1.2,0.2,2.1,1.1,2.5,2.5c0.1,0.1,0.1,0.3,0,0.4
			C71.5,119,71.2,119.2,70.8,119.3C70.8,119.3,70.8,119.3,70.8,119.3z"/>
		<path d="M59.2,114.5c-0.2,0-0.6-0.1-0.8-0.7c-0.4-1.5-1.3-3.2-3.4-3.5c-1-0.2-2.6,0.1-4.3,2.4c-0.3,0.4-0.7,0.6-1,0.4
			c-0.3-0.1-0.5-0.5-0.5-0.9c0-0.2,0.1-0.3,0.2-0.4c0,0,0,0,0,0c2.1-2.9,4.3-3.3,5.8-3.1c2.2,0.3,3.9,2,4.7,4.7c0,0,0,0,0,0
			c0.1,0.1,0.1,0.3,0.1,0.4C60,114.2,59.7,114.5,59.2,114.5C59.3,114.5,59.2,114.5,59.2,114.5z"/>
		<path class="st4" d="M74.3,91c0,0,10.3,25.4,24.9,28.8c0.3-24.4-11.8-31.1-23.7-33.4c-11.9-2.3-32.2,2.8-36.2,22.9
			C47.3,110.9,74.3,91,74.3,91z"/>
		<path d="M99.2,120.6c-0.1,0-0.1,0-0.2,0c-6.3-1.5-12.5-6.9-18.4-16c-3.4-5.3-5.8-10.3-6.6-12.3c-2,1.5-7.6,5.4-13.8,9.2
			c-10.5,6.4-17.6,9.4-21.1,8.7c-0.4-0.1-0.7-0.5-0.6-0.9c0.1-0.4,0.5-0.7,0.9-0.6c6.3,1.2,27-12.7,34.4-18.2
			c0.2-0.1,0.4-0.2,0.7-0.1c0.2,0.1,0.4,0.2,0.5,0.5c0.1,0.3,10.3,25,24.4,28.3c0.4,0.1,0.7,0.5,0.6,0.9
			C99.9,120.4,99.5,120.6,99.2,120.6z"/>
		<g>
			<g>
				<g>
					<g>
						<path class="st0" d="M96,123.1c0,0,1-3.3,5.2-3.1c4.4,0.2,5.1,6.2,2.3,9.1c-2.9,3-7.7,2.2-8.7-0.7L96,123.1z"/>
						<path d="M99.1,131.9c-0.5,0-0.9,0-1.4-0.1c-1.8-0.4-3.1-1.5-3.7-2.9c-0.1-0.4,0.1-0.9,0.5-1c0.4-0.1,0.9,0.1,1,0.5
							c0.3,1,1.3,1.7,2.5,1.9c1.4,0.3,3.4,0,4.9-1.5c1.4-1.4,1.9-3.8,1.2-5.7c-0.3-0.8-1.1-2-2.9-2.1c-3.5-0.2-4.4,2.5-4.4,2.5
							c-0.1,0.4-0.6,0.6-1,0.5c-0.4-0.1-0.6-0.6-0.5-1c0.4-1.3,2.2-3.8,6-3.6c2,0.1,3.5,1.2,4.3,3.1c1,2.4,0.3,5.5-1.5,7.4
							C102.7,131.2,100.9,131.9,99.1,131.9z"/>
					</g>
				</g>
				<g>
					<g>
						<path class="st0" d="M40.6,112.2c0,0,0.3-3.4-3.7-4.8c-4.1-1.5-7.1,3.7-5.6,7.6c1.5,3.8,6.3,5,8.3,2.7L40.6,112.2z"/>
						<path d="M36.8,119.6c-0.3,0-0.7,0-1-0.1c-2.3-0.4-4.3-2-5.1-4.3c-1-2.5-0.4-5.5,1.4-7.4c1.4-1.5,3.3-1.9,5.1-1.3
							c3.6,1.3,4.3,4.2,4.2,5.6c0,0.4-0.4,0.8-0.9,0.7c-0.4,0-0.8-0.4-0.7-0.8c0-0.1,0.1-2.9-3.1-4c-1.7-0.6-2.9,0.3-3.5,0.9
							c-1.4,1.4-1.8,3.8-1.1,5.7c0.8,2.1,2.6,3,4,3.3c1.3,0.2,2.4-0.1,3.1-0.8c0.3-0.3,0.8-0.3,1.1-0.1c0.3,0.3,0.3,0.8,0.1,1.1
							C39.4,119.1,38.2,119.6,36.8,119.6z"/>
					</g>
				</g>
			</g>
		</g>
	</g>
</g>
<g>
	<g>
		<path class="st6" d="M88.3,22.7c-0.6,3.9-6.3,6.3-10,6c-2.8-0.3-5.6-2.1-6.1-4.8L88.3,22.7z"/>
	</g>
</g>
<path d="M115.1,34.7c1.7-0.2,3-0.6,4.1-1.3c1.8-1.1,3-3,3.3-5.2c0.1-0.9,0-1.7-0.2-2.4c0,0,0-0.1,0-0.1c0.1,0,0.1,0,0.2,0
	c0.2,0,0.4,0.1,0.6,0.1c1,0.2,2.1,0.4,3.3,0.3c2.6-0.1,4.8-1.3,5.9-3.2c1.4-2.4,0.2-5.3-1.7-6.7c-1.6-1.2-4-1.7-6.3-1.3
	c-0.2,0-0.7,0.1-1.2,0.3c0.3-2.8-1.1-5.9-3.6-7.4c-2.8-1.7-6.6-1.6-9.8,0.3c-1,0.6-1.9,1.4-2.8,2.2c-0.3,0.3-0.7,0.6-1,0.9
	c-0.2-0.5-0.4-0.9-0.5-1.3c-1-2.2-2.7-3.9-4.6-4.6c-2.2-0.9-4.8-0.6-6.9,0.8c-1.8,1.2-3.2,3-4.2,5.4c-0.4,0.9-0.7,1.8-0.9,2.6
	c-1.7-3.5-3.8-5.9-6.3-7c-2.9-1.4-5.9-1.3-7.9,0.1c-1.1,0.8-2.1,2-2.9,3.7c-0.6,1.2-0.8,2.5-0.5,4c0,0.1,0,0.2,0.1,0.3
	c-1.1-0.1-2.2,0-3.3,0.2c-1.4,0.3-3.8,1-4.9,3.3c-1.2,2.5,0.5,5,2.5,6.2c1.8,1.1,4.3,1.5,6.2,0.2c0.4,1,1.1,1.9,2.1,2.6
	c1.5,1.1,3.3,1.7,5.3,1.7c0.8,0,1.6-0.1,2.4-0.3c2.1-0.5,4.1-1.7,5.6-3.3c0.1,0.6,0.3,1.3,0.5,1.9c0.7,1.7,2,3,3.7,3.7
	c1.7,0.8,3.7,0.9,5.6,0.5c2.6-0.6,4.8-2.5,6.3-5c0.3,1.1,0.8,2.2,1.6,3.3c1.5,2.1,3.6,3.6,6,4.2"/>
<path class="st2" d="M121.4,16.1c-0.1,0.1-0.2,0.2-0.3,0.3c-0.2,0.2-0.2,0.5-0.2,0.8l0,0.1l0,0c0,0.1,0,0.2,0,0.3
	c0.1,0.3,0.3,0.4,0.5,0.5c0.3,0,0.6-0.1,0.7-0.3c0.1-0.2,0.3-0.5,0.4-0.7c0,0,0,0,0,0c0.1-0.1,0.3-0.1,0.4-0.2
	c0.8-0.4,1.8-0.5,2.5-0.5c2.1,0,4,0.6,5,1.9c0.6,0.7,1,1.8,0.9,2.7c0,0.9-0.5,1.8-1.3,2.6c-1.2,1.1-2.9,1.5-5,1.4
	c-0.8-0.1-1.6-0.2-2.4-0.4l-0.3-0.1c-0.5-0.1-1-0.2-1.4-0.2l0,0l0,0c0,0-0.1,0-0.1,0c-0.3,0-0.6,0.2-0.7,0.6
	c-0.1,0.3,0.1,0.6,0.3,0.7c0,0,0,0,0.1,0c0,0,0,0,0,0l0,0l0,0c0,0,0,0,0,0c0,0,0,0,0,0.1c0,0,0,0,0,0c0,0,0,0.1,0.1,0.1
	c0,0,0.1,0.1,0.1,0.1l0,0c0,0,0,0,0,0.1c0,0,0,0,0,0c0,0,0,0,0,0.1c0.1,0.2,0.1,0.3,0.1,0.5c0.1,0.4,0.1,0.6,0.1,1
	c0,0.4,0,0.8-0.1,1.2c-0.4,1.6-1.4,2.9-2.9,3.7c-2.2,1.2-5.4,1.3-7.9,0.3c-1.9-0.7-3.5-2.1-4.6-4c-0.5-0.8-0.8-1.6-1-2.4
	c-0.1-0.4-0.2-0.8-0.2-1.1c0-0.2,0-0.4,0-0.6c0-0.1,0-0.2,0-0.2c0,0,0-0.1,0-0.1c0,0,0,0,0-0.1l0-0.2l0,0c0-0.4-0.3-0.6-0.6-0.7
	c-0.2-0.1-0.5,0-0.7,0.3l0,0l0,0.2c-0.5,1.8-1.4,3.4-2.7,4.6c-2.4,2.3-6,3-8.7,1.6c-2.7-1.4-3.9-4.8-2.6-7.4c0.2-0.4,0-0.8-0.3-0.9
	c-0.3-0.1-0.7-0.1-0.9,0.3c-0.2,0.5-0.4,1-0.5,1.5c-0.1,0-0.1,0.1-0.2,0.2c-0.7,1.1-1.7,2.1-2.9,2.8c-2.1,1.3-4.6,1.8-6.8,1.3
	c-1.9-0.5-4.2-1.8-4.6-4.1c0-0.2-0.1-0.3-0.3-0.4c0,0-0.1,0-0.1,0c-0.1,0-0.1-0.1-0.2-0.1c-0.2,0-0.4,0-0.6,0.2
	c-0.4,0.4-0.8,0.7-1.2,0.9c-1.9,0.8-4.1-0.1-5.4-1.5c-0.7-0.7-1-1.6-1-2.4c0-1,0.6-1.7,1-2.1c1.3-1.2,3.2-1.6,4.6-1.7
	c0.7,0,1.4,0,2,0c0.3,0.6,0.7,1.3,1.1,1.8c0.8,1.1,1.6,1.8,2.4,2.2c1,0.5,1.8,0.5,2.4-0.2c0.6-0.6,0.8-1.4,0.5-2.1
	c-0.4-1.2-1.6-2.1-3.9-2.7c-0.5-0.1-1.1-0.3-1.6-0.3c-0.3-0.8-0.4-1.6-0.3-2.5c0.1-0.6,0.4-1.2,0.6-1.7c0.4-0.7,0.8-1.3,1.2-1.8
	C75.1,8.4,76,7.9,77,7.6c0.9-0.2,2-0.2,3.3,0.1c1.4,0.4,2.6,1,3.7,1.9c2.4,2.1,3.8,5.2,4.6,7.3l0,0.1l0,0c0.1,0.3,0.4,0.5,0.7,0.5
	c0.3,0,0.6-0.3,0.6-0.6l0.1,0l-0.1-0.2c0-0.2,0-0.5,0-0.7c0-0.7,0.2-1.4,0.4-2.3c0.3-0.9,0.6-1.8,1.1-2.6c1.1-2,2.4-3.5,4-4.2
	C97.2,6,99.4,6,101,7c1.4,0.8,2.6,2.4,3.4,4.3c0.1,0.4,0.3,0.7,0.4,1.1c-0.2,0.3-0.5,0.5-0.7,0.8c-1.4,1.6-2,2.9-1.8,3.9
	c0.1,0.5,0.4,1,1,1.3c0.3,0.2,0.8,0.4,1.4,0.2c0.3-0.1,0.7-0.3,0.9-0.6c0.5-0.5,0.7-1.2,0.8-2.1c0.1-1,0-2-0.2-3c0,0,0,0,0,0
	c0.8-0.8,1.6-1.5,2.5-2.2C110,9.6,111,9,112,8.6c3-1.1,6.1-0.5,7.9,1.4C121.3,11.5,122.2,13.9,121.4,16.1z"/>
<path d="M76,19.7c0,0-0.1-0.1-0.1-0.1c0,0,0,0,0,0c0-0.1,0.1-0.1,0.2-0.1c0,0,0,0,0.1,0L76,19.7z"/>
<path d="M75,17.3c0.3,0.1,0.6,0.3,0.9,0.4c0.3,0.2,0.4,0.3,0.6,0.5c0.1,0.1,0.1,0.1,0.2,0.2c0,0,0,0,0,0c0,0,0,0,0,0l0,0
	c0,0,0.1,0.1,0.1,0.1c0,0,0,0,0,0.1c0,0,0,0,0,0c0,0,0,0.1,0,0.1c0,0,0,0,0,0c0,0,0,0.1,0,0.1l0,0.1c0,0,0,0,0,0
	c0,0.1,0,0.1-0.1,0.2l0,0c0,0,0,0,0,0l0,0c0,0-0.1,0.1-0.1,0.1c0,0,0,0.1-0.1,0.1c0,0,0,0,0,0c0,0,0,0,0,0c0,0,0,0.1-0.1,0.1
	c0,0,0,0,0,0c0,0,0,0,0,0c0,0-0.1,0-0.1,0c0,0-0.1,0-0.1,0c0,0-0.1,0-0.1,0c-0.1,0-0.1,0-0.2-0.1c0,0-0.1,0-0.1,0c0,0-0.1,0-0.1,0
	c-0.1,0-0.2-0.1-0.3-0.1c-0.3-0.2-0.6-0.4-1-0.8c-0.5-0.5-0.9-1-1.3-1.7C74,17,74.5,17.1,75,17.3z"/>
<path d="M105,16c0,0.1-0.1,0.3-0.1,0.4c0,0,0,0.1,0,0.1c0,0.1-0.1,0.1-0.1,0.2c0,0.1-0.1,0.1-0.1,0.2c0,0,0,0,0,0c0,0,0,0,0,0
	c0,0-0.1,0.1-0.1,0.1l0,0c0,0,0,0,0,0c0,0,0,0,0,0c0,0-0.1,0-0.1,0.1c0,0,0,0,0,0c0,0,0,0-0.1,0c0,0,0,0-0.1,0c0,0,0,0,0,0l0,0
	c0,0-0.1,0-0.1,0c-0.1,0-0.1-0.1-0.2-0.1c0,0-0.1,0-0.1-0.1l0,0c0,0-0.1-0.1-0.1-0.1c0,0,0,0,0,0c0,0,0,0,0-0.1c0,0,0,0,0-0.1
	c0,0,0-0.1,0-0.1c0,0,0-0.1,0-0.1c0,0,0,0,0-0.1c0-0.1,0-0.2,0.1-0.4c0.1-0.4,0.3-0.7,0.5-1c0.3-0.4,0.6-0.8,0.9-1.2
	c0,0.3,0,0.7,0,1C105.1,15.4,105.1,15.6,105,16z"/>
<g>
</g>
<g>
</g>
<g>
</g>
<g>
</g>
<g>
</g>
<g>
</g>
</svg>
