<?xml version="1.0" encoding="utf-8"?>
<!-- Generator: Adobe Illustrator 26.3.1, SVG Export Plug-In . SVG Version: 6.00 Build 0)  -->
<svg version="1.1" id="Layer_1" xmlns="http://www.w3.org/2000/svg" xmlns:xlink="http://www.w3.org/1999/xlink" x="0px" y="0px"
	 viewBox="0 0 143.3 211.6" style="enable-background:new 0 0 143.3 211.6;" xml:space="preserve">
<style type="text/css">
	.st0{fill:#1BAFAF;}
	.st1{fill:#FFB3C5;}
	.st2{fill:#81AFFD;}
	.st3{fill:#FFFFFF;}
	.st4{fill:#FF6665;}
	.st5{fill:none;stroke:#000000;stroke-width:1.0107;stroke-linecap:round;stroke-linejoin:round;stroke-miterlimit:10;}
	.st6{fill:#FDD561;}
</style>
<g>
	<g>
		<path class="st0" d="M28.3,183.4h104.5c0,0,13.2-12.9,6-18.1c-7.2-5.2-21.2,8.2-21.2,8.2s10.3-23.2-11.9-21.4
			s-34.4,18.8-34.4,18.8s6.8-7.8-0.7-9.1s-18.4,9.1-18.4,9.1s12.3-17.1,1.9-17S28.3,183.4,28.3,183.4z"/>
		<path d="M132.8,183.6H28.3c-0.1,0-0.1,0-0.2-0.1c0-0.1,0-0.1,0-0.2c0.6-1.2,15.5-29.7,25.9-29.7c0,0,0,0,0,0c2,0,3.3,0.6,3.9,1.8
			c1.8,3.5-2.8,11.2-4.8,14.2c3-2.6,11.2-9.1,17.4-8.1c1.9,0.3,3.1,1.1,3.5,2.3c0.5,1.3,0,2.9-0.7,4.2c4.5-4.9,15.6-14.9,32.3-16.2
			c6.1-0.5,10.4,0.9,12.7,4.1c2.3,3.3,2,7.9,1.4,11.2c-0.5,2.4-1.2,4.5-1.6,5.6c2.8-2.6,14.3-12.4,20.8-7.7c1.4,1,2.1,2.3,2.2,3.9
			c0.2,2.5-1.1,5.7-3.9,9.6c-2.1,2.8-4.2,4.9-4.3,5C132.9,183.5,132.9,183.6,132.8,183.6z M28.6,183.2h104.1c0.7-0.7,8.4-8.6,8-14.2
			c-0.1-1.5-0.8-2.7-2.1-3.6c-2-1.5-5.9-2.3-13.1,2.2c-4.3,2.7-7.8,6-7.9,6.1c-0.1,0.1-0.2,0.1-0.2,0c-0.1-0.1-0.1-0.1-0.1-0.2
			c0-0.1,4.9-11.2,0.6-17.2c-2.2-3.1-6.3-4.4-12.3-3.9c-19,1.5-30.7,14.3-33.6,17.8c-0.4,0.5-0.7,0.9-0.7,0.9
			c-0.1,0.1-0.2,0.1-0.3,0c-0.1-0.1-0.1-0.2,0-0.3c0,0,0.2-0.3,0.6-0.8c1-1.3,2.6-4,2-5.9c-0.4-1.1-1.5-1.7-3.2-2
			c-7.3-1.2-18.1,8.9-18.2,9c-0.1,0.1-0.2,0.1-0.3,0c-0.1-0.1-0.1-0.2,0-0.2c0.1-0.1,7.8-10.9,5.7-15.1c-0.6-1.1-1.8-1.6-3.6-1.6
			c0,0,0,0,0,0c-4.2,0-9.9,5.1-16.6,14.7C32.9,175.2,29.4,181.8,28.6,183.2z"/>
	</g>
	<g>
		<g>
			<g>
				<path class="st1" d="M103.3,129.7c0,0,5-10,5.9-10.7c0.9-0.6,3-2,3-2l-5.3-9.4l-7-1.2c0,0-3.6,4.7-3.8,5.1
					c-0.2,0.4-4.8,8.4-4.8,8.4L103.3,129.7z"/>
				<path d="M103.3,129.9c0,0-0.1,0-0.1,0l-11.9-9.8c-0.1,0-0.1-0.1,0-0.2c0-0.1,4.6-8,4.8-8.4c0.2-0.4,3.6-4.9,3.8-5.1
					c0,0,0.1-0.1,0.2-0.1l7,1.2c0,0,0.1,0,0.1,0.1l5.3,9.4c0,0.1,0,0.2,0,0.2c0,0-2.1,1.4-3,2c-0.6,0.4-3.9,6.6-5.9,10.6
					C103.4,129.8,103.3,129.9,103.3,129.9C103.3,129.9,103.3,129.9,103.3,129.9z M91.5,119.9l11.7,9.5c0.8-1.6,5-10,5.9-10.5
					c0.8-0.5,2.4-1.6,2.9-1.9l-5.2-9.2l-6.8-1.1c-1.2,1.6-3.5,4.7-3.7,5C96.1,112,92.1,118.9,91.5,119.9z"/>
			</g>
			<g>
				<g>
					<path class="st2" d="M103.2,98.5l25.2,14.4c0,0-0.5,1.1-1.5,2.2c-1.3,1.5-3.4,3.1-5.9,2.1c-4.3-1.7-10.7,1.8-10.7,1.8
						s-2.6,0.5-2.4-3.5c0.1-2.7-3.4-6.2-6-5.5c-2.6,0.7-3.1,2.8-5.8,1.5l5.8-10.7L103.2,98.5z"/>
					<path d="M110.1,119.3c-0.3,0-0.9-0.1-1.4-0.5c-0.7-0.6-1-1.7-1-3.2c0.1-1.4-0.9-3.1-2.4-4.3c-1.2-0.9-2.4-1.3-3.4-1
						c-0.9,0.2-1.6,0.7-2.1,1.1c-1.1,0.7-2,1.3-3.8,0.5c0,0-0.1-0.1-0.1-0.1c0,0,0-0.1,0-0.1l7.1-13.1c0,0,0.1-0.1,0.1-0.1
						c0,0,0.1,0,0.1,0l25.2,14.4c0.1,0,0.1,0.1,0.1,0.2c0,0-0.6,1.1-1.5,2.3c-1.3,1.6-3.5,3.2-6,2.2c-4.2-1.7-10.5,1.8-10.5,1.8
						c0,0,0,0-0.1,0C110.4,119.3,110.3,119.3,110.1,119.3z M102.6,109.8c0.9,0,1.9,0.4,2.9,1.2c1.6,1.2,2.6,3.1,2.5,4.6
						c-0.1,1.4,0.2,2.4,0.9,3c0.6,0.5,1.2,0.4,1.4,0.4c0.5-0.3,6.5-3.5,10.8-1.8c2.4,1,4.4-0.6,5.7-2.1c0.7-0.9,1.2-1.7,1.4-2.1
						l-24.9-14.2l-6.9,12.8c1.5,0.6,2.3,0.1,3.3-0.5c0.6-0.4,1.3-0.8,2.2-1.1C102.1,109.8,102.4,109.8,102.6,109.8z"/>
				</g>
				<g>
					<path class="st3" d="M103.2,98.5l25.2,14.4c0,0-0.5,1.1-1.5,2.2L102,100.9L103.2,98.5z"/>
					<path d="M126.9,115.3C126.9,115.3,126.8,115.3,126.9,115.3l-25-14.3c-0.1-0.1-0.1-0.2-0.1-0.3l1.3-2.4c0,0,0.1-0.1,0.1-0.1
						c0,0,0.1,0,0.1,0l25.2,14.4c0.1,0,0.1,0.2,0.1,0.2c0,0-0.6,1.1-1.5,2.3C127,115.3,126.9,115.3,126.9,115.3z M102.2,100.8
						l24.6,14.1c0.7-0.8,1.1-1.6,1.3-1.9l-24.8-14.2L102.2,100.8z"/>
				</g>
				<g>
					
						<rect x="114.5" y="113.3" transform="matrix(-0.9815 0.1913 -0.1913 -0.9815 250.5237 206.2596)" class="st2" width="1.5" height="3.8"/>
					<path d="M114.9,117.4C114.9,117.4,114.8,117.4,114.9,117.4c-0.1-0.1-0.2-0.1-0.2-0.1l-0.7-3.7c0-0.1,0-0.2,0.1-0.2l1.5-0.3
						c0,0,0.1,0,0.1,0c0,0,0.1,0.1,0.1,0.1l0.7,3.7c0,0.1,0,0.2-0.1,0.2L114.9,117.4C114.9,117.4,114.9,117.4,114.9,117.4z
						 M114.4,113.7l0.7,3.4l1.2-0.2l-0.7-3.4L114.4,113.7z"/>
				</g>
				<g>
					
						<rect x="112" y="114.1" transform="matrix(-0.9815 0.1913 -0.1913 -0.9815 245.6573 208.2554)" class="st2" width="1.5" height="3.8"/>
					<path d="M112.4,118.1C112.3,118.1,112.3,118.1,112.4,118.1c-0.1-0.1-0.2-0.1-0.2-0.1l-0.7-3.7c0-0.1,0-0.2,0.1-0.2l1.5-0.3
						c0,0,0.1,0,0.1,0c0,0,0.1,0.1,0.1,0.1l0.7,3.7c0,0.1,0,0.2-0.1,0.2L112.4,118.1C112.4,118.1,112.4,118.1,112.4,118.1z
						 M111.9,114.4l0.7,3.4l1.2-0.2l-0.7-3.4L111.9,114.4z"/>
				</g>
				<g>
					<polygon class="st2" points="116.9,113.3 118.5,113 119.2,116.6 117.6,116.7 					"/>
					<path d="M117.6,116.9c-0.1,0-0.1-0.1-0.2-0.1l-0.7-3.5c0-0.1,0-0.2,0.1-0.2l1.5-0.3c0,0,0.1,0,0.1,0c0,0,0.1,0.1,0.1,0.1
						l0.7,3.7c0,0,0,0.1,0,0.1c0,0-0.1,0.1-0.1,0.1L117.6,116.9C117.6,116.9,117.6,116.9,117.6,116.9z M117.1,113.4l0.6,3.2l1.2-0.1
						l-0.6-3.3L117.1,113.4z"/>
				</g>
				<g>
					<path d="M114.5,125.7c-0.5,0-1-0.2-1.3-0.6c-1.5-1.8-0.2-7.3-0.2-7.5c0-0.1,0.1-0.1,0.1-0.1c0.1,0,0.1,0,0.2,0.1
						c0.1,0.2,3.3,5.8,2.3,7.6C115.4,125.5,115,125.7,114.5,125.7C114.5,125.7,114.5,125.7,114.5,125.7z M113.2,118.1
						c-0.3,1.4-0.9,5.4,0.2,6.8c0.3,0.3,0.6,0.5,1,0.5c0,0,0,0,0,0c0.4,0,0.7-0.1,0.8-0.4C116,123.7,114.2,119.9,113.2,118.1z"/>
					<path d="M118.7,123.3c-0.1,0-0.2,0-0.3,0c-2.3-0.4-5.1-5.2-5.2-5.4c0-0.1,0-0.1,0-0.2c0-0.1,0.1-0.1,0.2-0.1
						c0.3,0.1,6.4,2.1,6.8,4.1c0.1,0.4-0.1,0.8-0.4,1.2C119.5,123.2,119.1,123.3,118.7,123.3z M113.8,118.1c0.7,1.2,2.9,4.6,4.7,4.9
						c0.4,0.1,0.8,0,1.1-0.3c0.3-0.3,0.4-0.5,0.3-0.8C119.6,120.4,115.7,118.7,113.8,118.1z"/>
				</g>
			</g>
		</g>
		<g>
			<g>
				<path class="st1" d="M50.8,162.7c0,0,0.5,4.7,0,5.7c-0.5,1-1.6,3.2-1.6,3.2l9.2,5.5l6.6-2.5c0,0,0.7-5.8,0.7-6.3
					c0-0.4,0-9.7,0-9.7L50.8,162.7z"/>
				<path d="M58.5,177.3C58.4,177.3,58.4,177.3,58.5,177.3l-9.3-5.5c-0.1,0-0.1-0.1-0.1-0.2c0,0,1.1-2.3,1.6-3.2
					c0.4-0.8,0.1-4.3,0-5.6c0-0.1,0-0.2,0.1-0.2l15-4c0,0,0.1,0,0.1,0c0,0,0.1,0.1,0.1,0.1c0,0.1,0,9.3,0,9.7c0,0.4-0.7,6-0.7,6.3
					c0,0.1,0,0.1-0.1,0.1L58.5,177.3C58.5,177.3,58.5,177.3,58.5,177.3z M49.4,171.6l9,5.4l6.5-2.4c0.3-2,0.7-5.8,0.7-6.1
					c0-0.4,0-8.1,0-9.5L51,162.9c0.1,0.8,0.4,4.7,0,5.6C50.5,169.3,49.7,171.1,49.4,171.6z"/>
			</g>
			<g>
				<g>
					<path class="st2" d="M66.2,183.3l-29,0.1c0,0-0.1-1.2,0.2-2.7c0.4-2,1.4-4.4,4-4.8c4.6-0.7,8.3-6.9,8.3-6.9s2-1.7,3.9,1.9
						c1.3,2.4,6.1,3.7,7.9,1.8s1.3-3.9,4.3-4.2l0.3,12.2L66.2,183.3z"/>
					<path d="M37.2,183.5c-0.1,0-0.2-0.1-0.2-0.2c0-0.1-0.1-1.3,0.2-2.7c0.4-2,1.4-4.5,4.2-4.9c4.5-0.7,8.2-6.8,8.2-6.8c0,0,0,0,0,0
						c0,0,0.7-0.6,1.7-0.4c0.9,0.2,1.7,1,2.5,2.3c0.7,1.2,2.4,2.3,4.2,2.5c1.5,0.2,2.7-0.1,3.4-0.8c0.7-0.7,1-1.4,1.3-2
						c0.6-1.1,1.1-2.1,3-2.3c0,0,0.1,0,0.1,0c0,0,0.1,0.1,0.1,0.1l0.4,14.9c0,0,0,0.1,0,0.1c0,0-0.1,0-0.1,0L37.2,183.5
						C37.2,183.5,37.2,183.5,37.2,183.5z M49.9,169.1c-0.3,0.5-3.9,6.3-8.4,7c-2.6,0.4-3.5,2.7-3.9,4.6c-0.2,1.1-0.2,2.1-0.2,2.5
						l28.7-0.1l-0.4-14.5c-1.7,0.2-2.1,1-2.6,2.1c-0.3,0.6-0.7,1.4-1.4,2.1c-0.8,0.8-2.1,1.1-3.7,0.9c-2-0.3-3.8-1.4-4.5-2.7
						c-0.7-1.3-1.4-2-2.2-2.1C50.5,168.6,50,169,49.9,169.1z"/>
				</g>
				<g>
					<path class="st3" d="M66.2,183.3l-29,0.1c0,0-0.1-1.2,0.2-2.7l28.7-0.1L66.2,183.3z"/>
					<path d="M37.2,183.6c-0.1,0-0.2-0.1-0.2-0.2c0-0.1-0.1-1.3,0.2-2.7c0-0.1,0.1-0.2,0.2-0.2l28.7-0.1c0,0,0,0,0,0
						c0.1,0,0.2,0.1,0.2,0.2l0.1,2.7c0,0.1,0,0.1-0.1,0.1c0,0-0.1,0.1-0.1,0.1L37.2,183.6C37.2,183.6,37.2,183.6,37.2,183.6z
						 M37.6,180.9c-0.2,1-0.2,1.9-0.2,2.3l28.6-0.1l-0.1-2.3L37.6,180.9z"/>
				</g>
				<g>
					
						<rect x="46.6" y="172.9" transform="matrix(0.7554 -0.6552 0.6552 0.7554 -102.9468 73.8198)" class="st2" width="1.5" height="3.8"/>
					<path d="M48.1,176.9C48.1,176.9,48,176.9,48.1,176.9c-0.1,0-0.1,0-0.1-0.1l-2.5-2.8c-0.1-0.1-0.1-0.2,0-0.2l1.2-1
						c0,0,0.1,0,0.1,0c0,0,0.1,0,0.1,0.1l2.5,2.8c0.1,0.1,0.1,0.2,0,0.2l-1.2,1C48.1,176.9,48.1,176.9,48.1,176.9z M45.8,173.9
						l2.2,2.6l0.9-0.8l-2.2-2.6L45.8,173.9z"/>
				</g>
				<g>
					
						<rect x="48.4" y="171" transform="matrix(0.7554 -0.6552 0.6552 0.7554 -101.2437 74.5369)" class="st2" width="1.5" height="3.8"/>
					<path d="M49.9,175c0,0-0.1,0-0.1-0.1l-2.5-2.8c-0.1-0.1-0.1-0.2,0-0.2l1.2-1c0,0,0.1,0,0.1,0c0,0,0.1,0,0.1,0.1l2.5,2.8
						c0,0,0,0.1,0,0.1s0,0.1-0.1,0.1l-1.2,1C49.9,175,49.9,175,49.9,175z M47.6,172l2.2,2.6l0.9-0.8l-2.2-2.6L47.6,172z"/>
				</g>
				<g>
					<polygon class="st2" points="47,177.3 45.8,178.3 43.3,175.5 44.7,174.7 					"/>
					<path d="M45.8,178.5C45.8,178.5,45.8,178.5,45.8,178.5c-0.1,0-0.1,0-0.1-0.1l-2.5-2.8c0,0,0-0.1,0-0.1c0,0,0-0.1,0.1-0.1
						l1.3-0.8c0.1,0,0.2,0,0.2,0l2.3,2.7c0,0,0,0.1,0,0.1s0,0.1-0.1,0.1l-1.2,1C45.9,178.5,45.8,178.5,45.8,178.5z M43.6,175.5
						l2.2,2.6l0.9-0.8l-2.1-2.4L43.6,175.5z"/>
				</g>
				<g>
					<path d="M48.1,171.8C48,171.8,48,171.8,48.1,171.8c-0.3-0.2-5.9-3.4-5.9-5.5c0-0.4,0.2-0.8,0.7-1.1c0.5-0.3,0.9-0.3,1.4-0.1
						c2.2,0.9,3.8,6.2,3.9,6.4c0,0.1,0,0.1-0.1,0.2C48.1,171.8,48.1,171.8,48.1,171.8z M43.7,165.4c-0.2,0-0.4,0.1-0.7,0.2
						c-0.3,0.2-0.5,0.4-0.5,0.7c0,1.4,3.4,3.8,5.2,4.9c-0.4-1.3-1.9-5.1-3.6-5.8C44,165.4,43.9,165.4,43.7,165.4z"/>
					<path d="M42.9,172.4c-1.3,0-2.4-0.2-3-0.7c-0.3-0.3-0.4-0.7-0.2-1.2c0.2-0.5,0.5-0.9,1-1.1c2.2-0.8,7,2,7.2,2.1
						c0.1,0,0.1,0.1,0.1,0.2c0,0.1-0.1,0.1-0.1,0.1C47.7,171.9,45.1,172.4,42.9,172.4z M41.7,169.6c-0.3,0-0.6,0-0.8,0.1
						c-0.4,0.1-0.6,0.4-0.8,0.8c-0.1,0.4-0.1,0.7,0.1,0.9c1,1.1,5.1,0.5,7.1,0.1C46.3,171,43.5,169.6,41.7,169.6z"/>
				</g>
			</g>
		</g>
		<g>
			<path class="st4" d="M50.8,97.5c0,0-1.8,53.1,0,65.3h16.3l-2-47.6c0,0,5.2,40.1,15.4,39.4c10.2-0.7,23.7-24.4,23.7-24.4L95,113.3
				l-11.8,17.2c0,0-2.9-8.8-3.7-15.3c1.9-5.5-2.4-13.7-2.4-13.7l-6.4-5.8L50.8,97.5z"/>
			<path d="M67.2,162.9H50.8c-0.1,0-0.2-0.1-0.2-0.2c-1.7-12,0-64.8,0-65.3c0-0.1,0.1-0.2,0.2-0.2l19.9-1.8c0.1,0,0.1,0,0.1,0
				l6.4,5.8c0,0,0,0,0,0.1c0.2,0.3,4.3,8.2,2.4,13.8c0.7,5.6,3,13.1,3.5,14.9l11.6-16.9c0-0.1,0.1-0.1,0.2-0.1c0.1,0,0.1,0,0.2,0.1
				l9.2,16.8c0,0.1,0,0.1,0,0.2c0,0.1-3.4,6-8,11.9c-6.2,8-11.5,12.2-15.8,12.6c-0.1,0-0.2,0-0.3,0c-4.2,0-8.1-6.6-11.4-19.6
				c-1.6-6.3-2.7-12.6-3.4-16.5l1.9,44.1c0,0.1,0,0.1-0.1,0.1C67.3,162.9,67.2,162.9,67.2,162.9z M51,162.6h16l-2-47.4
				c0-0.1,0.1-0.2,0.2-0.2c0.1,0,0.2,0.1,0.2,0.2c0.1,0.4,5.3,40,15.2,39.2c9.7-0.7,22.5-22.6,23.5-24.2l-9-16.5l-11.6,16.9
				c0,0.1-0.1,0.1-0.2,0.1c-0.1,0-0.1-0.1-0.2-0.1c0-0.1-2.9-8.9-3.7-15.3c0,0,0-0.1,0-0.1c1.8-5.2-2.1-13-2.4-13.5l-6.3-5.7
				L51,97.6C50.9,100.9,49.3,150.6,51,162.6z"/>
		</g>
		<g>
			<path class="st2" d="M62.6,62c0,0-2.7-0.3-6.1-0.9l0,0c0,0,0,0-0.1,0c-0.5-0.1-1.1-0.2-1.6-0.3C50.5,60.1,43,58,43,58l-16.4-9
				l-5.4,9.1L33.2,69c0,0,4.9,3.9,8.4,4.1c1.7,0.1,6,0.9,10.2,1.8c-0.6,6.1-4.7,25.1-5,28.6c2-0.1,8,0.4,11.1,0.5l-0.9-28.1
				c2.2,0.5,3.7,0.8,3.7,0.8L62.6,62z"/>
			<path d="M57.8,104.2C57.8,104.2,57.8,104.2,57.8,104.2c-0.9,0-2-0.1-3.2-0.2c-3.1-0.2-6.5-0.4-7.9-0.3c0,0-0.1,0-0.1,0
				c0,0-0.1-0.1,0-0.1c0.1-1.6,1-6.1,2-11.4c1.2-6.4,2.6-13.6,3-17.1c-5.2-1-8.6-1.6-10-1.7c-3.5-0.3-8.2-4-8.4-4.2L21.2,58.3
				c-0.1-0.1-0.1-0.1,0-0.2l5.4-9.1c0-0.1,0.1-0.1,0.2-0.1l16.4,9c0,0,7.5,2.1,11.7,2.8c0.5,0.1,1,0.2,1.5,0.2l0,0
				c0.1,0,0.1,0,0.2,0c0,0,0,0,0,0c3.4,0.5,6,0.8,6,0.8c0,0,0.1,0,0.1,0.1c0,0,0,0.1,0,0.1l-1.9,14.8c0,0,0,0.1-0.1,0.1
				c0,0-0.1,0-0.1,0c0,0-1.4-0.3-3.5-0.8l0.9,27.9c0,0,0,0.1,0,0.1C57.8,104.2,57.8,104.2,57.8,104.2z M47.5,103.3
				c1.7,0,4.6,0.2,7.1,0.4c1.1,0.1,2.1,0.1,3,0.2l-0.9-27.9c0-0.1,0-0.1,0.1-0.1c0,0,0.1,0,0.1,0c1.8,0.4,3.1,0.7,3.6,0.8l1.9-14.4
				c-0.6-0.1-3-0.4-6-0.8c0,0,0,0,0,0c0,0,0,0,0,0c-0.5-0.1-1.1-0.2-1.6-0.3c-4.2-0.7-11.7-2.8-11.7-2.8l-16.3-8.9l-5.2,8.9
				l11.8,10.8c0,0,4.9,3.8,8.3,4.1c1.4,0.1,4.8,0.7,10.2,1.8c0.1,0,0.1,0.1,0.1,0.2c-0.3,3.4-1.8,10.7-3,17.3c-1,5.1-1.8,9.5-2,11.2
				C47,103.3,47.2,103.3,47.5,103.3z"/>
		</g>
		<g>
			<path class="st3" d="M73.9,60.6l-3.5,39c-3.7-0.4-8.6-0.8-12.6-1l-1.3-37.6c2.4-1.1,6.2-0.9,12,3.2
				C68.5,64.3,69.7,59.8,73.9,60.6z"/>
			<path d="M70.4,99.8C70.3,99.8,70.3,99.8,70.4,99.8c-4.6-0.4-9.3-0.8-12.6-1c-0.1,0-0.2-0.1-0.2-0.2l-1.3-37.6
				c0-0.1,0-0.1,0.1-0.2c3-1.4,7.1-0.4,12,3.1c0.3-0.9,1.8-4.3,5.5-3.5c0.1,0,0.1,0.1,0.1,0.2l-3.5,39c0,0,0,0.1-0.1,0.1
				C70.4,99.8,70.4,99.8,70.4,99.8z M57.9,98.5c3.3,0.2,7.8,0.5,12.3,1l3.5-38.7c-3.8-0.6-5.1,3.5-5.1,3.6c0,0.1-0.1,0.1-0.1,0.1
				c0,0-0.1,0-0.2,0c-4.9-3.4-8.8-4.5-11.8-3.2L57.9,98.5z"/>
		</g>
		<g>
			<g>
				<path class="st4" d="M70.9,52.8c0,0,3.8-5.8,2.7-9.3c-1-3.5-3.3-3.9-3.3-3.9s-2.9-4.6-6.6-3.2c-3.2,1.2-8.7,5.9-11.6,5.9
					c-0.8,0-1.6,0.6-1.7,1.4c-0.3,2.3,0.1,6,5.6,6.5L70.9,52.8z"/>
				<path d="M70.9,53C70.9,53,70.8,53,70.9,53L56,50.4c-2.2-0.2-3.8-0.9-4.8-2.2c-1.1-1.4-1.2-3.3-1-4.5c0.1-0.9,0.9-1.6,1.9-1.6
					c0,0,0,0,0,0c1.7,0,4.4-1.7,6.9-3.3c1.7-1.1,3.3-2.1,4.6-2.6c3.6-1.4,6.4,2.6,6.8,3.2c0.4,0.1,2.4,0.8,3.4,4
					c1.1,3.5-2.6,9.2-2.8,9.5C71,53,70.9,53,70.9,53z M52.1,42.5c-0.8,0-1.4,0.5-1.5,1.3c-0.2,1.2-0.1,2.9,0.9,4.3
					c0.9,1.1,2.4,1.8,4.5,2l14.8,2.6c0.5-0.8,3.6-5.9,2.7-9c-1-3.3-3.2-3.8-3.2-3.8c0,0-0.1,0-0.1-0.1c0,0-2.9-4.4-6.4-3.1
					c-1.2,0.5-2.8,1.5-4.5,2.6C56.6,40.8,53.9,42.5,52.1,42.5C52.1,42.5,52.1,42.5,52.1,42.5z"/>
			</g>
			<g>
				<path class="st1" d="M70.6,53.7l-0.2,10.7c-1.2,2.9-4.8,7.2-9,8.7c-1.5-4.2-2-7.1-1.6-9.2s0.7-5.5,0.7-5.5L70.6,53.7z"/>
				<path d="M61.4,73.2C61.4,73.2,61.4,73.2,61.4,73.2c-0.1,0-0.2-0.1-0.2-0.1c-1.5-4.4-2-7.2-1.6-9.3c0.4-2,0.7-5.5,0.7-5.5
					c0-0.1,0-0.1,0.1-0.2l10.1-4.6c0.1,0,0.1,0,0.2,0c0.1,0,0.1,0.1,0.1,0.2l-0.2,10.7c0,0,0,0,0,0.1C69.3,67.6,65.6,71.8,61.4,73.2
					C61.5,73.2,61.4,73.2,61.4,73.2z M60.7,58.4c0,0.6-0.3,3.6-0.7,5.5c-0.4,2,0.1,4.7,1.5,8.9c3.9-1.5,7.4-5.4,8.7-8.5L70.4,54
					L60.7,58.4z"/>
			</g>
			<g>
				<g>
					<path class="st1" d="M57.8,45.3c-0.5,0-0.9,0.4-1,0.9c-0.4,2.6-1,8.4,0.5,11c1.9,3.3,8.6,4.8,12.5-2.5c0,0,3.1,1.5,4.1-2.1
						c1-3.6-1.9-3.4-2.9-2.2c0,0-1.6,2-2.2,1.6c2.4-6.7,1.6-3,0.7-8.6C66.4,45.5,58.5,45.2,57.8,45.3z"/>
					<path d="M62.4,60.1c-2.2,0-4.3-1.1-5.3-2.8c-1.5-2.6-0.9-8.6-0.5-11.1c0.1-0.6,0.6-1.1,1.2-1.1c0.1,0,0.3,0,0.6,0
						c2.1,0,8.3-0.1,10.8-1.9c0.1,0,0.1,0,0.2,0c0.1,0,0.1,0.1,0.1,0.1c0.3,1.7,0.5,2.5,0.7,3c0.3,1,0.3,1-0.4,2.9
						c-0.2,0.6-0.5,1.4-0.9,2.5c0.5-0.1,1.3-0.9,1.8-1.6c0.7-0.7,1.9-1.1,2.7-0.6c0.5,0.3,1.1,1.1,0.6,3c-0.3,1.2-0.9,2-1.7,2.3
						c-1,0.5-2.1,0.1-2.5,0c-2.4,4.4-5.6,5.2-7.3,5.2C62.5,60.1,62.5,60.1,62.4,60.1z M57.8,45.5c-0.4,0-0.7,0.4-0.8,0.8
						c-0.3,2.4-1,8.4,0.5,10.9c0.9,1.6,3,2.7,5.1,2.6c1.6,0,4.7-0.8,7-5.2c0-0.1,0.2-0.1,0.2-0.1c0,0,1.2,0.6,2.3,0.1
						c0.7-0.3,1.2-1,1.5-2.1c0.4-1.3,0.2-2.2-0.4-2.6c-0.7-0.4-1.7,0-2.2,0.5c-0.3,0.3-1.7,2.1-2.5,1.6c-0.1,0-0.1-0.1-0.1-0.2
						c0.4-1.2,0.8-2.1,1-2.7c0.7-1.8,0.7-1.8,0.4-2.7c-0.2-0.5-0.4-1.3-0.7-2.8c-2.8,1.7-8.8,1.7-10.8,1.8
						C58.1,45.5,57.9,45.5,57.8,45.5L57.8,45.5z M57.8,45.3L57.8,45.3L57.8,45.3z"/>
				</g>
				<path d="M61.2,54.6c-0.3,0-0.5,0-0.7-0.2c-0.3-0.2-0.4-0.5-0.3-0.9c0.1-1.4,1.1-3.8,1.1-3.9c0-0.1,0.2-0.1,0.2-0.1
					c0.1,0,0.1,0.2,0.1,0.2c0,0-1,2.4-1.1,3.8c0,0.3,0,0.5,0.2,0.6c0.3,0.2,0.9,0.1,1.2,0c0.1,0,0.2,0,0.2,0.1c0,0.1,0,0.2-0.1,0.2
					C61.9,54.5,61.6,54.6,61.2,54.6z"/>
				<ellipse transform="matrix(0.123 -0.9924 0.9924 0.123 6.5683 107.3692)" cx="64" cy="50" rx="1" ry="0.6"/>
				<ellipse transform="matrix(0.123 -0.9924 0.9924 0.123 2.9052 102.0205)" cx="59.2" cy="49.4" rx="1" ry="0.6"/>
				<path d="M66.4,48.2c-0.1,0-0.1,0-0.1-0.1c-0.4-0.5-0.8-0.7-1.2-0.7c-0.5,0-0.8,0.3-0.8,0.3c-0.1,0.1-0.2,0.1-0.3,0
					c-0.1-0.1-0.1-0.2,0-0.3c0,0,0.5-0.5,1.1-0.5c0.5,0,1,0.3,1.5,0.9c0.1,0.1,0.1,0.2,0,0.3C66.5,48.1,66.4,48.2,66.4,48.2z"/>
				<path d="M57.9,47.3c0,0-0.1,0-0.1,0c-0.1-0.1-0.1-0.2,0-0.3c0.5-0.6,1-0.8,1.5-0.8h0c0.7,0,1.1,0.5,1.1,0.5
					c0.1,0.1,0.1,0.2,0,0.3c-0.1,0.1-0.2,0.1-0.3,0l0,0c0,0-0.3-0.4-0.8-0.4c0,0,0,0,0,0c-0.4,0-0.8,0.2-1.2,0.7
					C58,47.3,58,47.3,57.9,47.3z"/>
				<path d="M70,53.8C70,53.8,69.9,53.8,70,53.8c-0.2,0-0.2-0.2-0.2-0.3c0.9-2.3,2.1-2.3,2.1-2.3c0.1,0,0.2,0.1,0.2,0.2
					c0,0.1-0.1,0.2-0.2,0.2c0,0-1,0.1-1.7,2C70.1,53.7,70.1,53.8,70,53.8z"/>
				<g>
					<path class="st4" d="M64.2,53.9c0,0-0.2,3-3.5,2.7c0,0,1.8,1.4,3,0.9C65,57.1,64.2,53.9,64.2,53.9z"/>
					<path d="M63.1,57.8c-1.2,0-2.5-1-2.6-1c-0.1-0.1-0.1-0.1-0.1-0.2c0-0.1,0.1-0.1,0.2-0.1c1,0.1,1.7-0.1,2.3-0.6c0.9-0.8,1-2,1-2
						c0-0.1,0.1-0.2,0.2-0.2c0.1,0,0.2,0.1,0.2,0.1c0.1,0.3,0.8,3.3-0.6,3.8C63.6,57.8,63.3,57.8,63.1,57.8z M61.3,56.8
						c0.6,0.3,1.6,0.8,2.3,0.5c0.7-0.3,0.7-1.6,0.5-2.6c-0.2,0.4-0.4,0.9-0.9,1.4C62.7,56.6,62.1,56.8,61.3,56.8z"/>
				</g>
			</g>
			<g>
				<path d="M60.3,60.2L60,63.1c0,0,4.8-0.9,7-5C67,58.1,64,60.7,60.3,60.2z"/>
				<path d="M60,63.3c0,0-0.1,0-0.1-0.1c0,0-0.1-0.1-0.1-0.2l0.4-2.9c0,0,0-0.1,0.1-0.1c0,0,0.1,0,0.1,0c3.6,0.5,6.5-2,6.5-2
					c0.1-0.1,0.2-0.1,0.2,0c0.1,0.1,0.1,0.2,0,0.2C64.9,62.4,60,63.3,60,63.3C60,63.3,60,63.3,60,63.3z M60.5,60.4l-0.3,2.5
					c0.9-0.2,4.2-1.2,6.2-4C65.2,59.6,63.1,60.7,60.5,60.4z"/>
			</g>
			<path d="M67.3,43.1c0,0-0.1,0-0.1,0c-0.1-0.1-0.1-0.2,0-0.3l2.1-2.5c0.1-0.1,0.2-0.1,0.3,0c0.1,0.1,0.1,0.2,0,0.3L67.4,43
				C67.4,43,67.3,43.1,67.3,43.1z"/>
		</g>
		<path class="st5" d="M54.1,113.9"/>
		<g>
			<g>
				<path class="st1" d="M26.7,49l-10.8-7.4L13.4,37c-0.4-0.7-1.1-1.1-1.9-1l-2.3,0.2l-5.7-3.5c-0.6-0.4-1.3,0.2-1.1,0.9
					c0.1,0.3,0.4,0.7,0.8,1.1l2.9,2.8c0,0-1.3,0.9-0.9,1.9c0,0-0.9,0.9-0.2,1.9c0,0-0.7,0.9,0.7,2c0,0,1.7,2.6,3.2,3.1
					s6.5,5.2,6.5,5.2l6.7,5.1L26.7,49z"/>
				<path d="M22.2,56.8c0,0-0.1,0-0.1,0l-6.7-5.1c-0.1-0.1-5-4.6-6.4-5.1c-1.5-0.6-3.1-2.9-3.3-3.2c-1.2-1-0.9-1.8-0.8-2.1
					c-0.5-0.7-0.1-1.5,0.2-1.9c-0.3-0.8,0.5-1.5,0.8-1.8l-2.8-2.7c-0.4-0.4-0.7-0.7-0.8-1.1c-0.1-0.4,0-0.8,0.3-1
					c0.3-0.3,0.7-0.3,1.1-0.1L9.3,36l2.2-0.2c0.8-0.1,1.7,0.4,2.1,1.1l2.4,4.6l10.8,7.4c0.1,0.1,0.1,0.2,0.1,0.2l-4.5,7.6
					C22.4,56.7,22.3,56.8,22.2,56.8C22.3,56.8,22.3,56.8,22.2,56.8z M3.1,32.7c-0.1,0-0.3,0.1-0.3,0.1c-0.1,0.1-0.3,0.3-0.2,0.6
					c0.1,0.3,0.4,0.7,0.7,1l2.9,2.8c0,0,0.1,0.1,0.1,0.1c0,0.1,0,0.1-0.1,0.1c0,0-1.2,0.9-0.8,1.6c0,0.1,0,0.2,0,0.2
					c0,0-0.8,0.8-0.2,1.6c0,0.1,0,0.2,0,0.2c0,0-0.5,0.8,0.7,1.7c0,0,0,0,0,0c0,0,1.7,2.5,3.2,3c1.5,0.6,6.3,5,6.5,5.2l6.5,5
					l4.3-7.2l-10.7-7.3c0,0,0,0-0.1-0.1l-2.5-4.6c-0.3-0.6-1-1-1.7-0.9l-2.3,0.2c0,0-0.1,0-0.1,0l-5.7-3.5
					C3.3,32.7,3.2,32.7,3.1,32.7z"/>
			</g>
			<path d="M9.6,41.5c-1,0-3.2-1.3-3.5-1.4C6,40,6,39.8,6,39.8c0.1-0.1,0.2-0.1,0.3-0.1c1,0.6,2.9,1.5,3.4,1.4c0,0,0.1,0,0.1,0
				c0.1-0.1,0.1-0.3,0-0.4c-0.3-1-2.7-2.5-3.7-3C6,37.5,6,37.4,6,37.3c0-0.1,0.2-0.1,0.3-0.1c0.1,0.1,3.5,1.9,3.9,3.3
				c0.1,0.3,0.1,0.5-0.1,0.7c0,0.1-0.1,0.2-0.3,0.2C9.7,41.4,9.6,41.5,9.6,41.5z"/>
			<path d="M9.4,43c-0.1,0-0.2,0-0.3-0.1c-1-0.4-3.2-1.5-3.3-1.5c-0.1,0-0.1-0.2-0.1-0.3c0-0.1,0.2-0.1,0.3-0.1c0,0,2.3,1.1,3.3,1.5
				c0.2,0.1,0.2,0,0.3,0c0.2-0.2,0.3-1,0.2-1.5c0-0.1,0.1-0.2,0.2-0.2c0.1,0,0.2,0.1,0.2,0.2c0,0.1,0.1,1.4-0.4,1.8
				C9.6,43,9.5,43,9.4,43z"/>
			<path d="M7.9,44.6c-0.1,0-0.2-0.1-0.2-0.2c0-0.1,0.1-0.2,0.2-0.2c0.3,0,1.2-0.2,1.4-0.7c0.1-0.2,0.1-0.4-0.1-0.6
				c-0.1-0.1,0-0.2,0.1-0.3c0.1-0.1,0.2,0,0.3,0.1c0.2,0.4,0.2,0.7,0.1,1C9.2,44.4,8,44.6,7.9,44.6C7.9,44.6,7.9,44.6,7.9,44.6z"/>
			<path d="M11.8,42.3c-0.1,0-0.1,0-0.1-0.1c-1.4-1.8-0.6-3.1-0.2-3.7c-0.2-0.1-0.6-0.2-1.4-0.4c-0.4-0.1-0.7-0.3-0.9-0.6
				C8.8,37,9,36.1,9.1,36.1C9.1,36,9.2,36,9.3,36c0.1,0,0.2,0.1,0.1,0.2c0,0-0.2,0.7,0.1,1.2c0.1,0.2,0.3,0.4,0.7,0.4
				c1.3,0.3,1.7,0.5,1.7,0.5c0.1,0,0.1,0.1,0.1,0.1c0,0.1,0,0.1-0.1,0.2c-0.1,0.1-1.5,1.4,0,3.4c0.1,0.1,0,0.2,0,0.3
				C11.8,42.3,11.8,42.3,11.8,42.3z"/>
		</g>
		<g>
			<polygon points="51.7,74.9 51.7,68.7 49.9,74.5 			"/>
			<path d="M51.7,75.1C51.7,75.1,51.7,75.1,51.7,75.1l-1.8-0.4c-0.1,0-0.1,0-0.1-0.1c0,0,0-0.1,0-0.2l1.8-5.9c0-0.1,0.1-0.1,0.2-0.1
				c0.1,0,0.2,0.1,0.2,0.2v6.2c0,0.1,0,0.1-0.1,0.1C51.8,75,51.7,75.1,51.7,75.1z M50.2,74.4l1.4,0.3v-4.7L50.2,74.4z"/>
		</g>
		<g>
			<path class="st2" d="M91.1,88.3l-4.8-14.7c-4.9-13.6-11.5-12.8-12.4-13L70,103.5c4.6,0.4,10.5,1.1,10.5,1.1s-2.7-5.5-2.7-13.1
				L91.1,88.3z"/>
			<path d="M80.5,104.8C80.5,104.8,80.5,104.8,80.5,104.8c-0.1,0-6-0.7-10.5-1.1c-0.1,0-0.2-0.1-0.1-0.2l3.9-42.9c0,0,0-0.1,0.1-0.1
				c0,0,0.1,0,0.1,0c0.1,0,0.2,0,0.3,0c5.1,0.3,9.2,4.7,12.2,13l4.8,14.7c0,0,0,0.1,0,0.1c0,0-0.1,0.1-0.1,0.1L78,91.6
				c0.1,7.4,2.6,12.9,2.7,12.9c0,0.1,0,0.1,0,0.2C80.6,104.7,80.6,104.8,80.5,104.8z M70.2,103.4c3.9,0.4,8.8,0.9,10.1,1.1
				c-0.5-1.2-2.6-6.3-2.6-12.9c0-0.1,0.1-0.1,0.1-0.2l13-3.2l-4.8-14.5c-3-8.2-7-12.5-11.9-12.8c-0.1,0-0.1,0-0.2,0L70.2,103.4z"/>
		</g>
		<path d="M77.9,91.7c-0.1,0-0.2-0.1-0.2-0.2l-1.3-19.2c0-0.2-0.7-4.1,1.4-5.1c0.1,0,0.2,0,0.2,0.1c0,0.1,0,0.2-0.1,0.2
			c-1.8,0.9-1.2,4.8-1.2,4.8L78,91.5C78,91.6,78,91.7,77.9,91.7C77.9,91.7,77.9,91.7,77.9,91.7z"/>
		<g>
			<polygon points="59.6,108.8 65.1,115.1 65.1,119.1 			"/>
			<path d="M65.1,119.3c-0.1,0-0.1,0-0.2-0.1l-5.5-10.3c0-0.1,0-0.2,0.1-0.2c0.1-0.1,0.2,0,0.2,0l5.5,6.3c0,0,0,0.1,0,0.1v4
				C65.3,119.2,65.3,119.3,65.1,119.3C65.2,119.3,65.2,119.3,65.1,119.3z M60.5,110.2l4.4,8.2v-3.2L60.5,110.2z"/>
		</g>
		<path d="M55.4,158.9c-0.1,0-0.2-0.1-0.2-0.2l-1.3-55.3c0-0.1,0.1-0.2,0.2-0.2c0.1,0,0.2,0.1,0.2,0.2l1.3,55.3
			C55.6,158.8,55.5,158.9,55.4,158.9C55.4,158.9,55.4,158.9,55.4,158.9z"/>
		<path d="M67,158.9H50.4c-0.1,0-0.2-0.1-0.2-0.2c0-0.1,0.1-0.2,0.2-0.2H67c0.1,0,0.2,0.1,0.2,0.2C67.2,158.8,67.1,158.9,67,158.9z"
			/>
		<path d="M80.8,137c-0.1,0-0.2,0-0.3,0c-4.6-0.8-7.5-31.8-7.6-33.1c0-0.1,0.1-0.2,0.2-0.2c0.1,0,0.2,0.1,0.2,0.2
			c0.8,8.9,3.7,32.1,7.3,32.8c1.8,0.3,5.3-2.6,10.3-8.4c3.8-4.5,7.1-9.1,7.1-9.1c0.1-0.1,0.2-0.1,0.3,0c0.1,0.1,0.1,0.2,0,0.3
			C97.8,120,85.6,137,80.8,137z"/>
		<path d="M73.1,108.7c-0.5,0-1-0.2-1.4-0.5c-1.6-1.3-1.9-4.5-1.9-4.7c0-0.1,0.1-0.2,0.2-0.2c0.1,0,0.2,0.1,0.2,0.2
			c0,0,0.3,3.3,1.8,4.4c0.5,0.4,1,0.5,1.6,0.4c0.1,0,0.2,0.1,0.2,0.2c0,0.1-0.1,0.2-0.2,0.2C73.4,108.7,73.3,108.7,73.1,108.7z"/>
	</g>
	<g>
		<rect x="75.7" y="111.9" class="st6" width="22.5" height="3"/>
		<path d="M98.1,115H75.7c-0.1,0-0.2-0.1-0.2-0.2v-3c0-0.1,0.1-0.2,0.2-0.2h22.5c0.1,0,0.2,0.1,0.2,0.2v3
			C98.3,114.9,98.2,115,98.1,115z M75.8,114.7H98V112H75.8V114.7z"/>
	</g>
	<g>
		<g>
			<path class="st1" d="M82.4,108.7c0,0-1.2,8-0.1,10.5c1.1,2.5,7.6,0.2,7.6,0.2s0.6-0.7-0.1-1.3c0,0,1.5,0.1,1.4-1.2
				c0,0,1.5-1.2,1-2.3c0,0-3-0.2-2.9-1.3c0.2-1.1,1-3,0.6-4.8l-1.1-19.6l-10.8,2.6L82.4,108.7z"/>
			<path d="M84.9,120.5c-1.3,0-2.4-0.3-2.8-1.3c-1-2.5,0-9.9,0.1-10.6l-4.5-17.2c0,0,0-0.1,0-0.1c0,0,0.1-0.1,0.1-0.1l10.8-2.6
				c0,0,0.1,0,0.1,0c0,0,0.1,0.1,0.1,0.1l1.1,19.6c0.3,1.4-0.1,2.8-0.4,3.8c-0.1,0.4-0.2,0.8-0.2,1c0,0.1,0,0.2,0.1,0.3
				c0.4,0.5,2.1,0.8,2.6,0.8c0.1,0,0.1,0,0.1,0.1c0.5,1.1-0.6,2.2-0.9,2.5c0,0.4-0.1,0.7-0.3,0.9c-0.3,0.3-0.6,0.4-0.9,0.4
				c0.1,0.1,0.1,0.3,0.1,0.4c0.1,0.4-0.3,0.8-0.3,0.8c0,0,0,0-0.1,0C89.7,119.6,87.1,120.5,84.9,120.5z M78,91.6l4.5,17
				c0,0,0,0,0,0.1c0,0.1-1.2,8-0.1,10.4c1,2.3,6.7,0.3,7.3,0.1c0.1-0.1,0.2-0.3,0.2-0.6c0-0.2-0.1-0.3-0.3-0.4
				c-0.1,0-0.1-0.1-0.1-0.2c0-0.1,0.1-0.1,0.2-0.1c0,0,0.7,0,1-0.3c0.2-0.2,0.2-0.4,0.2-0.7c0-0.1,0-0.1,0.1-0.1c0,0,1.3-1.1,1-2.1
				c-0.4,0-2.2-0.3-2.8-0.9c-0.1-0.2-0.2-0.3-0.2-0.5c0-0.3,0.1-0.7,0.2-1.1c0.3-1.1,0.6-2.4,0.4-3.7l-1.1-19.4L78,91.6z"/>
		</g>
		<path d="M85.7,118.7c-0.2,0-0.3,0-0.4,0c-0.9-0.2-0.8-1.6-0.8-1.6c0-0.1,0.1-0.2,0.2-0.1c0.1,0,0.2,0.1,0.1,0.2
			c0,0-0.1,1.2,0.5,1.3c0.6,0.1,3.3-0.2,4.3-0.4c0.1,0,0.2,0,0.2,0.1c0,0.1,0,0.2-0.1,0.2C89.6,118.3,86.9,118.7,85.7,118.7z"/>
		<path d="M89.2,117.2c-1,0-2.1-0.1-2.5-0.6c-0.8-0.9-0.7-1.5-0.7-1.5c0-0.1,0.1-0.1,0.2-0.1c0.1,0,0.1,0.1,0.1,0.2
			c0,0-0.1,0.5,0.6,1.2c0.6,0.6,3.1,0.5,4,0.4c0.1,0,0.2,0.1,0.2,0.1c0,0.1-0.1,0.2-0.1,0.2C90.9,117.1,90.1,117.2,89.2,117.2z"/>
	</g>
	<g>
		<g>
			<ellipse transform="matrix(0.9055 -0.4243 0.4243 0.9055 -68.0581 54.9814)" cx="89.4" cy="180.3" rx="2.8" ry="3.6"/>
			
				<ellipse transform="matrix(0.9055 -0.4243 0.4243 0.9055 -68.1909 55.0839)" class="st3" cx="89.6" cy="180.7" rx="1.5" ry="1.9"/>
		</g>
		<g>
			<ellipse transform="matrix(0.9055 -0.4243 0.4243 0.9055 -65.9331 64.5243)" cx="111.9" cy="180.3" rx="2.8" ry="3.6"/>
			
				<ellipse transform="matrix(0.9055 -0.4243 0.4243 0.9055 -66.0659 64.6268)" class="st3" cx="112.1" cy="180.7" rx="1.5" ry="1.9"/>
		</g>
		<g>
			<polygon class="st3" points="89,133.6 88.7,128.6 109.6,128.6 110.2,133.6 108.5,133.6 108.1,130.4 91.3,130.1 91.3,133.6 			"/>
			<path d="M110.2,133.7h-1.7c-0.1,0-0.2-0.1-0.2-0.2l-0.4-3l-16.5-0.3v3.3c0,0.1-0.1,0.2-0.2,0.2H89c-0.1,0-0.2-0.1-0.2-0.2l-0.4-5
				c0-0.1,0-0.1,0-0.1c0,0,0.1-0.1,0.1-0.1h21c0.1,0,0.2,0.1,0.2,0.2l0.6,5c0,0.1,0,0.1,0,0.1C110.3,133.7,110.2,133.7,110.2,133.7z
				 M108.7,133.4h1.3l-0.5-4.6H88.9l0.4,4.6h1.9v-3.3c0-0.1,0-0.1,0.1-0.1c0,0,0.1-0.1,0.1-0.1l16.8,0.3c0.1,0,0.2,0.1,0.2,0.2
				L108.7,133.4z"/>
		</g>
		<g>
			<polygon class="st2" points="129.2,178.3 97.8,178.3 88.7,133.6 120,133.6 			"/>
			<path d="M129.2,178.5H97.8c-0.1,0-0.1-0.1-0.2-0.1l-9.2-44.8c0,0,0-0.1,0-0.1c0,0,0.1-0.1,0.1-0.1H120c0.1,0,0.1,0.1,0.2,0.1
				l9.2,44.8c0,0,0,0.1,0,0.1C129.3,178.5,129.2,178.5,129.2,178.5z M98,178.2h31l-9.1-44.4h-31L98,178.2z"/>
		</g>
		<g>
			<path class="st3" d="M100.7,136.7H81.9c-0.4,0-0.7-0.3-0.7-0.6L77.5,115c-0.1-0.4,0.2-0.8,0.6-0.9c0.4-0.1,0.8,0.2,0.9,0.6
				l3.5,20.5h17.3L95.1,115c-0.1-0.4,0.2-0.8,0.6-0.9c0.4-0.1,0.8,0.2,0.9,0.6l4.9,21.2c0.1,0.2,0,0.5-0.1,0.6
				C101.2,136.6,101,136.7,100.7,136.7z"/>
			<path d="M100.7,136.9H81.9c-0.5,0-0.8-0.3-0.9-0.8L77.3,115c0-0.2,0-0.5,0.2-0.7c0.1-0.2,0.4-0.3,0.6-0.4c0.2,0,0.5,0,0.7,0.2
				c0.2,0.1,0.3,0.4,0.4,0.6l3.5,20.4h16.9l-4.6-20c-0.1-0.5,0.2-1,0.7-1.1c0.5-0.1,1,0.2,1.1,0.7l4.9,21.2c0.1,0.3,0,0.6-0.2,0.8
				C101.3,136.8,101,136.9,100.7,136.9z M78.3,114.3C78.2,114.3,78.2,114.3,78.3,114.3c-0.2,0-0.4,0.1-0.5,0.2
				c-0.1,0.1-0.1,0.3-0.1,0.4l3.6,21.2c0,0.3,0.3,0.5,0.6,0.5h18.8c0.2,0,0.3-0.1,0.4-0.2c0.1-0.1,0.1-0.3,0.1-0.5l-4.9-21.2
				c-0.1-0.3-0.4-0.5-0.7-0.4c-0.3,0.1-0.5,0.4-0.4,0.7l4.7,20.2c0,0.1,0,0.1,0,0.2s-0.1,0.1-0.1,0.1H82.5c-0.1,0-0.2-0.1-0.2-0.2
				l-3.5-20.5c0-0.1-0.1-0.3-0.2-0.4C78.5,114.3,78.4,114.3,78.3,114.3z"/>
		</g>
		<g>
			<polygon class="st2" points="117.7,178.3 86.3,178.3 77.1,133.6 108.5,133.6 			"/>
			<path d="M117.7,178.5H86.3c-0.1,0-0.1-0.1-0.2-0.1l-9.2-44.8c0,0,0-0.1,0-0.1c0,0,0.1-0.1,0.1-0.1h31.4c0.1,0,0.1,0.1,0.2,0.1
				l9.2,44.8c0,0,0,0.1,0,0.1C117.8,178.5,117.7,178.5,117.7,178.5z M86.4,178.2h31l-9.1-44.4h-31L86.4,178.2z"/>
		</g>
		<path d="M114.1,176.1H87.9c-0.1,0-0.2-0.1-0.2-0.2l-7-39.1c0-0.1,0-0.1,0-0.2c0,0,0.1-0.1,0.1-0.1l26.2-0.6c0.1,0,0.2,0.1,0.2,0.2
			l7,39.7c0,0.1,0,0.1,0,0.2C114.2,176,114.2,176.1,114.1,176.1z M88.1,175.7h25.8l-6.9-39.3l-25.8,0.6L88.1,175.7z"/>
		<g>
			<polygon class="st3" points="115.2,133.6 124.2,173.5 122.5,174 113.5,133.6 			"/>
			<path d="M122.5,174.2C122.4,174.2,122.4,174.1,122.5,174.2c-0.1-0.1-0.2-0.1-0.2-0.1l-9-40.4c0-0.1,0-0.1,0-0.2s0.1-0.1,0.1-0.1
				h1.7c0.1,0,0.2,0.1,0.2,0.1l9,39.9c0,0.1,0,0.2-0.1,0.2L122.5,174.2C122.5,174.1,122.5,174.2,122.5,174.2z M113.7,133.7l8.9,40
				l1.4-0.4l-8.9-39.6H113.7z"/>
		</g>
	</g>
</g>
<g>
	<path class="st3" d="M97.5,139.6l-0.9,0.1l-0.1-0.5l2.3-0.4l0.1,0.5l-0.9,0.1l0.4,2.8l-0.6,0.1L97.5,139.6z"/>
	<path class="st3" d="M98.4,146.7l0.2,0l-0.4-2.3l-0.2,0l-0.1-0.5l1-0.2l0.1,0.5l-0.2,0l0.4,2.3l0.2,0l0.1,0.5l-1,0.2L98.4,146.7z"
		/>
	<path class="st3" d="M98,148.8l0.6-0.1l0.9,2.4l0.1-2.6l0.6-0.1l1.4,3.2l-0.6,0.1l-0.9-2.1l-0.1,2.3l-0.7,0.1l-0.9-2.1l-0.2,2.3
		l-0.6,0.1L98,148.8z"/>
	<path class="st3" d="M98.9,153.5l2.1-0.3l0.1,0.5l-1.6,0.2l0.1,0.8l1.2-0.2l0.1,0.5l-1.2,0.2l0.1,0.9l1.6-0.2l0.1,0.5l-2.1,0.3
		L98.9,153.5z"/>
	<path class="st3" d="M90.2,140.2l0.9-0.1l1.2,2.5l0.4-2.7l0.9-0.1l0.5,3.4l-0.6,0.1l-0.4-2.5l-0.4,2.6l-0.7,0.1l-1.2-2.4l0.4,2.5
		l-0.6,0.1L90.2,140.2z"/>
	<path class="st3" d="M92.6,147.6l0.2,0l-0.4-2.3l-0.2,0l-0.1-0.5l1-0.2l0.1,0.5l-0.2,0l0.4,2.3l0.2,0l0.1,0.5l-1,0.2L92.6,147.6z"
		/>
	<path class="st3" d="M92.8,152.4l0.4-0.4c0.2,0.2,0.5,0.4,0.7,0.4c0.2,0,0.4-0.2,0.4-0.4c0-0.2-0.2-0.3-0.4-0.4l-0.5-0.1
		c-0.3-0.1-0.7-0.4-0.8-0.8c-0.1-0.5,0.2-1,0.8-1.1c0.5-0.1,0.9,0.1,1.2,0.5l-0.4,0.4c-0.2-0.3-0.5-0.4-0.7-0.4
		c-0.3,0-0.4,0.2-0.3,0.4c0,0.2,0.1,0.3,0.4,0.4l0.5,0.2c0.4,0.1,0.7,0.4,0.8,0.8c0.1,0.5-0.2,1-0.9,1.1
		C93.5,153,93.1,152.8,92.8,152.4z"/>
	<path class="st3" d="M93.5,157.2l0.4-0.4c0.2,0.2,0.5,0.4,0.7,0.4c0.2,0,0.4-0.2,0.4-0.4c0-0.2-0.2-0.3-0.4-0.4l-0.5-0.1
		c-0.3-0.1-0.7-0.4-0.8-0.8c-0.1-0.5,0.2-1,0.8-1.1c0.5-0.1,0.9,0.1,1.2,0.5l-0.4,0.4c-0.2-0.3-0.5-0.4-0.7-0.4
		c-0.3,0-0.4,0.2-0.3,0.4c0,0.2,0.1,0.3,0.4,0.4l0.5,0.2c0.4,0.1,0.7,0.4,0.8,0.8c0.1,0.5-0.2,1-0.9,1.1
		C94.2,157.8,93.8,157.6,93.5,157.2z"/>
	<path class="st3" d="M94.9,162l0.2,0l-0.4-2.3l-0.2,0l-0.1-0.5l1-0.2l0.1,0.5l-0.2,0l0.4,2.3l0.2,0l0.1,0.5l-1,0.2L94.9,162z"/>
	<path class="st3" d="M94.3,165.8c-0.2-1,0.5-1.9,1.4-2c0.9-0.1,1.8,0.4,2,1.5c0.2,1-0.5,1.9-1.4,2
		C95.3,167.4,94.4,166.9,94.3,165.8z M96.2,166.7c0.6-0.1,1-0.6,0.9-1.3c-0.1-0.7-0.7-1.1-1.3-1c-0.6,0.1-1,0.6-0.9,1.3
		C95,166.5,95.6,166.8,96.2,166.7z"/>
	<path class="st3" d="M95.2,168.9l0.6-0.1l0.4,2.4l1.1-2.7l0.6-0.1l0.5,3.4l-0.6,0.1l-0.4-2.2l-0.9,2.4l-0.7,0.1L95.2,168.9z"/>
</g>
</svg>
