<?xml version="1.0" encoding="utf-8"?>
<!-- Generator: Adobe Illustrator 26.3.1, SVG Export Plug-In . SVG Version: 6.00 Build 0)  -->
<svg version="1.1" id="Layer_1" xmlns="http://www.w3.org/2000/svg" xmlns:xlink="http://www.w3.org/1999/xlink" x="0px" y="0px"
	 viewBox="0 0 143.3 211.6" style="enable-background:new 0 0 143.3 211.6;" xml:space="preserve">
<style type="text/css">
	.st0{fill:#CADDFD;}
	.st1{fill:#23286B;}
	.st2{fill:#A1C3FC;}
	.st3{fill:#D9E021;}
	.st4{fill:#E94A47;}
	.st5{fill:#428DFC;}
	.st6{fill:none;}
	.st7{fill:#FFFFFF;}
	.st8{fill:#1D72D8;}
	.st9{fill:url(#SVGID_1_);}
	.st10{fill:url(#SVGID_00000181786459533973118440000016322679878428957846_);}
	.st11{fill:#D62929;}
	.st12{fill:#F2A19C;}
	.st13{fill:#FFBEB6;}
	.st14{fill:none;stroke:#23286B;stroke-linecap:round;stroke-miterlimit:10;}
	.st15{fill:url(#SVGID_00000012430765004475342890000009617308609574140802_);}
	.st16{fill:url(#SVGID_00000165214886928261324320000013246508316278877844_);}
	.st17{fill:url(#SVGID_00000140729801057836732970000009295879507723545482_);}
	.st18{fill:url(#SVGID_00000176755842135123018580000011378093275757182607_);}
	.st19{fill:url(#SVGID_00000141455758478210376440000016234446328972363953_);}
</style>
<g transform="translate(780.0 195.0) rotate(0.0 646.875 508.125)  scale(4.3125 4.30614406779661)">
	<g>
		<path class="st0" d="M-159.7-40L-159.7-40l-0.1-0.1C-159.7-40.1-159.7-40.1-159.7-40C-159.7-40-159.7-40-159.7-40z"/>
		<path class="st0" d="M-166.1-40.5L-166.1-40.5L-166.1-40.5L-166.1-40.5z"/>
		<path class="st0" d="M-167.7-36.4L-167.7-36.4C-167.7-36.4-167.7-36.4-167.7-36.4L-167.7-36.4z"/>
		<path class="st0" d="M-158.7-37l0.3,0.1c0-0.2,0-0.4,0-0.5l-0.1,0L-158.7-37z"/>
		<path class="st0" d="M-159.2-35.8l0.2-0.4l0.4,0.1l-0.2,0.4L-159.2-35.8z"/>
		<path class="st0" d="M-159.5-35l0.4,0.1l-0.2,0.4l-0.4-0.1L-159.5-35z"/>
		<path class="st0" d="M-159.8-33.7l-0.2-0.1l-0.2,0.4c0.1-0.1,0.1-0.1,0.2-0.2C-159.9-33.6-159.9-33.6-159.8-33.7L-159.8-33.7z"/>
		<path class="st0" d="M-159.2-38l0.4,0.1l0.2-0.4c0,0,0,0,0-0.1l-0.3-0.1L-159.2-38z"/>
		<path class="st0" d="M-159.5-37.2l0.4,0.1l-0.2,0.4l-0.4-0.1L-159.5-37.2z"/>
		<path class="st0" d="M-159.6-35.8l-0.2,0.4l-0.4-0.1l0.2-0.4L-159.6-35.8z"/>
		<path class="st0" d="M-160.5-34.8l0.4,0.1l-0.2,0.4l-0.4-0.1L-160.5-34.8z"/>
		<path class="st0" d="M-160.9-33.5l-0.2,0.4l0.3,0.1c0,0,0,0,0.1,0l0.2-0.4L-160.9-33.5z"/>
		<path class="st0" d="M-159.4-38.7l-0.4-0.1l0.2-0.4l0.4,0.1L-159.4-38.7z"/>
		<path class="st0" d="M-160.2-37.6l0.2-0.4l0.4,0.1l-0.2,0.4L-160.2-37.6z"/>
		<path class="st0" d="M-160.3-36.2l-0.4-0.1l0.2-0.4l0.4,0.1L-160.3-36.2z"/>
		<path class="st0" d="M-161-35.6l0.4,0.1l-0.2,0.4l-0.4-0.1L-161-35.6z"/>
		<path class="st0" d="M-161.5-34.4l0.4,0.1l-0.2,0.4l-0.4-0.1L-161.5-34.4z"/>
		<path class="st0" d="M-160.2-39.8l0.4,0.1l0.1-0.4c0,0,0,0,0,0c0,0-0.1-0.1-0.1-0.1l-0.2-0.1L-160.2-39.8z"/>
		<path class="st0" d="M-160.3-38.4l-0.4-0.1l0.2-0.4l0.4,0.1L-160.3-38.4z"/>
		<path class="st0" d="M-160.8-37.2l-0.4-0.1l0.2-0.4l0.4,0.1L-160.8-37.2z"/>
		<path class="st0" d="M-161.3-36l-0.4-0.1l0.2-0.4l0.4,0.1L-161.3-36z"/>
		<path class="st0" d="M-161.6-35.2l-0.2,0.4l-0.4-0.1l0.2-0.4L-161.6-35.2z"/>
		<path class="st0" d="M-162.4-34.1l0.4,0.1l-0.2,0.4l-0.4-0.1L-162.4-34.1z"/>
		<path class="st0" d="M-160.4-40.5l0-0.1c-0.1-0.1-0.2-0.2-0.3-0.2l-0.1,0.2L-160.4-40.5z"/>
		<path class="st0" d="M-161.2-39.4l0.2-0.4l0.4,0.1l-0.2,0.4L-161.2-39.4z"/>
		<path class="st0" d="M-161.3-38.1l-0.4-0.1l0.2-0.4l0.4,0.1L-161.3-38.1z"/>
		<path class="st0" d="M-161.8-36.8l-0.4-0.1l0.2-0.4l0.4,0.1L-161.8-36.8z"/>
		<path class="st0" d="M-162.3-35.6l-0.4-0.1l0.2-0.4l0.4,0.1L-162.3-35.6z"/>
		<path class="st0" d="M-163-35l0.4,0.1l-0.2,0.4l-0.4-0.1L-163-35z"/>
		<path class="st0" d="M-161.4-40.3l-0.4-0.1l0.2-0.4l0.4,0.1L-161.4-40.3z"/>
		<path class="st0" d="M-161.9-39.1l-0.4-0.1l0.2-0.4l0.4,0.1L-161.9-39.1z"/>
		<path class="st0" d="M-162.4-37.9l-0.4-0.1l0.2-0.4l0.4,0.1L-162.4-37.9z"/>
		<path class="st0" d="M-162.8-36.7l-0.4-0.1l0.2-0.4l0.4,0.1L-162.8-36.7z"/>
		<path class="st0" d="M-163.2-35.9l-0.2,0.4l-0.4-0.1l0.2-0.4L-163.2-35.9z"/>
		<path class="st0" d="M-164-34.8l0.4,0.1l-0.2,0.4l-0.4-0.1L-164-34.8z"/>
		<path class="st0" d="M-161.9-41.2l0.1-0.2c-0.1,0-0.3-0.1-0.4-0.1l-0.1,0.2L-161.9-41.2z"/>
		<path class="st0" d="M-162.8-40.1l0.2-0.4l0.4,0.1l-0.2,0.4L-162.8-40.1z"/>
		<path class="st0" d="M-162.9-38.7l-0.4-0.1l0.2-0.4l0.4,0.1L-162.9-38.7z"/>
		<path class="st0" d="M-163.4-37.5l-0.4-0.1l0.2-0.4l0.4,0.1L-163.4-37.5z"/>
		<path class="st0" d="M-163.9-36.3l-0.4-0.1l0.2-0.4l0.4,0.1L-163.9-36.3z"/>
		<path class="st0" d="M-164.6-35.6l0.4,0.1l-0.2,0.4l-0.4-0.1L-164.6-35.6z"/>
		<path class="st0" d="M-162.9-40.9l-0.4-0.1l0.2-0.4l0.4,0.1L-162.9-40.9z"/>
		<path class="st0" d="M-163.4-39.7l-0.4-0.1l0.2-0.4l0.4,0.1L-163.4-39.7z"/>
		<path class="st0" d="M-163.8-38.5l-0.4-0.1l0.2-0.4l0.4,0.1L-163.8-38.5z"/>
		<path class="st0" d="M-164.5-37.8l0.4,0.1l-0.2,0.4l-0.4-0.1L-164.5-37.8z"/>
		<path class="st0" d="M-164.6-36.5l-0.2,0.4l-0.4-0.1l0.2-0.4L-164.6-36.5z"/>
		<path class="st0" d="M-165.5-35.4l0.4,0.1l-0.2,0.4l-0.4-0.1L-165.5-35.4z"/>
		<path class="st0" d="M-163.9-40.5l-0.4-0.1l0.2-0.4l0.4,0.1L-163.9-40.5z"/>
		<path class="st0" d="M-164.8-39.5l0.2-0.4l0.4,0.1l-0.2,0.4L-164.8-39.5z"/>
		<path class="st0" d="M-164.9-38.1l-0.4-0.1l0.2-0.4l0.4,0.1L-164.9-38.1z"/>
		<path class="st0" d="M-165.6-37.5l0.4,0.1l-0.2,0.4l-0.4-0.1L-165.6-37.5z"/>
		<path class="st0" d="M-166-36.2l0.4,0.1l-0.2,0.4l-0.4-0.1L-166-36.2z"/>
		<path class="st0" d="M-164.8-40.3l-0.4-0.1l0.2-0.4l0.4,0.1L-164.8-40.3z"/>
		<path class="st0" d="M-165.3-39.1l-0.4-0.1l0.2-0.4l0.4,0.1L-165.3-39.1z"/>
		<path class="st0" d="M-165.8-37.8l-0.4-0.1l0.2-0.4l0.4,0.1L-165.8-37.8z"/>
		<path class="st0" d="M-166.1-37l-0.2,0.4l-0.4-0.1l0.2-0.4L-166.1-37z"/>
		<path class="st0" d="M-167-36l0.4,0.1l-0.2,0.4l-0.4-0.1L-167-36z"/>
		<path class="st0" d="M-165.9-39.9l0.2-0.4l-0.4-0.1l0,0l-0.2,0.4L-165.9-39.9z"/>
		<path class="st0" d="M-166.4-38.7l-0.4-0.1l0.2-0.4l0.4,0.1L-166.4-38.7z"/>
		<path class="st0" d="M-166.8-37.4l-0.4-0.1l0.2-0.4l0.4,0.1L-166.8-37.4z"/>
		<path class="st0" d="M-167.2-36.7l-0.4-0.1l-0.2,0.4c0,0,0,0,0,0.1l0.3,0.1L-167.2-36.7z"/>
		<path class="st0" d="M-166.7-39.8c0,0-0.1,0.1-0.1,0.1l0,0L-166.7-39.8z"/>
		<path class="st0" d="M-167.1-38.9l-0.2-0.1c-0.1,0.1-0.1,0.3-0.2,0.4l0.2,0.1L-167.1-38.9z"/>
		<path class="st0" d="M-167.7-37.6c0,0.1,0,0.2,0,0.3L-167.7-37.6L-167.7-37.6z"/>
	</g>
	<path class="st1" d="M-166.1-31l-7.6-1.3l1.4-8.1l7.6,1.3L-166.1-31z"/>
	<path class="st2" d="M-159.9-28.8l-5.9,3.2l-3.4-6.3l5.9-3.2L-159.9-28.8z"/>
	<ellipse class="st3" cx="-170" cy="-41.3" rx="0.4" ry="0.4"/>
	<path class="st1" d="M-174.7-39.7l-0.3,1l-0.9-0.3l0.3-1L-174.7-39.7z"/>
	<path class="st4" d="M-159-40.4l0.1-0.7l0.7,0.1l-0.1,0.7L-159-40.4z"/>
	<path class="st1" d="M-167-26.9l0.2-1l1,0.2l-0.2,1L-167-26.9z"/>
	<path class="st5" d="M-167.7-25.9C-167.7-25.9-167.7-25.9-167.7-25.9c-0.5-1.1-0.2-2.4,0.7-3.1c0,0,0.1,0,0.1,0s0,0.1,0,0.1
		C-167.7-28.2-168-26.9-167.7-25.9C-167.6-25.9-167.6-25.9-167.7-25.9C-167.6-25.9-167.6-25.9-167.7-25.9L-167.7-25.9z"/>
	<path class="st5" d="M-171.2-27C-171.2-27-171.2-27-171.2-27C-171.2-27-171.2-27-171.2-27c0.2-1.2,1.2-2,2.3-2.1c0,0,0.1,0,0.1,0.1
		c0,0,0,0.1-0.1,0.1C-169.9-28.9-170.9-28.1-171.2-27C-171.1-27-171.1-27-171.2-27z"/>
	<path class="st5" d="M-173.2-39.5C-173.2-39.5-173.2-39.5-173.2-39.5c-0.2-0.7-0.7-1.3-1.4-1.5c-0.7-0.2-1.5-0.1-2.1,0
		c0,0-0.1,0-0.1-0.1c0,0,0-0.1,0.1-0.1c0.6-0.1,1.4-0.2,2.2,0C-173.8-40.8-173.2-40.2-173.2-39.5C-173.1-39.5-173.1-39.5-173.2-39.5
		C-173.2-39.5-173.2-39.5-173.2-39.5L-173.2-39.5z"/>
	<path class="st6" d="M-170.4-30.6l-0.1-5.6"/>
	<path class="st4" d="M-170-36.2l0.1,5.6l-0.9,0l-0.1-5.6L-170-36.2z"/>
	<path class="st6" d="M-168.4-30.6l-0.1-5.6"/>
	<path class="st4" d="M-168.1-36.2l0.1,5.6l-0.9,0l-0.1-5.6L-168.1-36.2z"/>
	<path class="st5" d="M-172.7-37.3h1.1v3.4h-1.1V-37.3z"/>
	<path class="st5" d="M-157.9-39.2l0.9,0.6l-2.5,3.5l-0.9-0.6L-157.9-39.2z"/>
	<path class="st2" d="M-156.4-34.4l-0.8,0.8l-2.4-2.2l0.8-0.8L-156.4-34.4z"/>
	<path class="st5" d="M-173.8-38.1h3.4v1.1h-3.4V-38.1z"/>
	<path class="st4" d="M-170.5-34.5h2v0.9h-2V-34.5z"/>
	<path class="st7" d="M-163.7-32.5h-1.7h-2.2l1.7-5.3l2.3,5.3L-163.7-32.5z"/>
	<path class="st4" d="M-167.1-32.3l-0.8-0.3l2.1-6.4l2.7,6.3l-0.8,0.3l-1.8-4.2L-167.1-32.3z"/>
	<path class="st8" d="M-164.8-34.4l-0.3,1l-0.9-0.3l0.3-1L-164.8-34.4z"/>
	<path class="st1" d="M-161.6-33.5l-1.4-3v0.3h-0.9v-2.2l0.8-0.2l1.4,2.9l0-3l0.9,0l0,5.1L-161.6-33.5z"/>
	<path class="st7" d="M-162.8-31.5v2.4c0,0.5-0.4,0.9-0.8,0.9h-0.6c-0.5,0-0.8-0.4-0.8-0.9v-2.4c0,0,1.5,0,1.5,0H-162.8L-162.8-31.5
		z"/>
	<path class="st1" d="M-163.7-27.7h-0.6c-0.7,0-1.3-0.6-1.3-1.3v-2.4h0.9v2.4c0,0.3,0.2,0.5,0.4,0.5h0.6c0.2,0,0.4-0.2,0.4-0.5v-2.4
		h0.9v2.4C-162.4-28.3-163-27.7-163.7-27.7z"/>
</g>
<g transform="translate(618.75 937.5) rotate(0.0 808.125 941.25)  scale(5.751779359430605 5.739329268292683)">
	
		<linearGradient id="SVGID_1_" gradientUnits="userSpaceOnUse" x1="328.0162" y1="-259.205" x2="352.7911" y2="-259.205" gradientTransform="matrix(-1.0951 2.818372e-02 2.812271e-02 1.0928 279.2138 126.3498)">
		<stop  offset="0" style="stop-color:#FFBEB6"/>
		<stop  offset="1" style="stop-color:#F2A19C"/>
	</linearGradient>
	<path class="st9" d="M-87.4-150.1c-0.2,0-0.4,0.2-0.6,0.2c-0.1,0-0.2,0.1-0.2,0c-0.1-0.1,0-0.2,0-0.3c0.3-0.4,0.8-1.5,0.6-1.4
		c-0.5,0.3-0.5,1.1-1,1.5c0,0,0-0.1,0-0.2c0.2-0.3,0.3-0.6,0.5-0.8c0.1-0.1,0.2-0.3,0.3-0.4c0.1-0.1,0.3-0.3,0.2-0.3
		c-0.1-0.1-0.3,0.1-0.4,0.2c-0.2,0.2-0.3,0.5-0.5,0.7c-0.1,0.2-0.2,0.4-0.3,0.6c-0.1,0.1-0.1,0.1-0.1,0.1c0,0-0.1,0-0.1,0
		c0-0.1,0-0.1,0-0.2c0.2-0.5,0.7-1.4,0.6-1.4c-0.3-0.1-0.8,1-1,1.7c0,0.1,0,0.2-0.1,0.2c-0.2,0.2-0.4-0.1-0.6-0.3
		c-0.1-0.2-0.4-0.5-0.6-0.4c0.2,0.6,0.8,1.1,0.8,1.7c0,0.4-0.3,0.7-0.5,1c-0.8,1-0.9,1.3-1.6,2.4c-0.1,0.1-0.1,0.9,0,1
		c0.1,0.4,0.1,0.9,0.2,1.2c0.9-1.2,1.4-2.7,2-4.2c0.1-0.3,0.3-0.7,0.5-0.9c0.2-0.2,0.4-0.3,0.6-0.5c0,0,0-0.1,0.1-0.1
		c0.2-0.2,0.6-0.6,0.8-0.7C-87.6-149.8-87.2-150.1-87.4-150.1L-87.4-150.1z"/>
	
		<linearGradient id="SVGID_00000120551016327840807620000015622441628854354582_" gradientUnits="userSpaceOnUse" x1="-34.757" y1="-93.0641" x2="-33.2564" y2="-93.0641" gradientTransform="matrix(-5.7501 0.1484 -0.1481 -5.7376 -302.6567 -678.5941)">
		<stop  offset="0" style="stop-color:#FFBEB6"/>
		<stop  offset="1" style="stop-color:#F2A19C"/>
	</linearGradient>
	<path style="fill:url(#SVGID_00000120551016327840807620000015622441628854354582_);" d="M-89.1-149.1c0,0.1,0,0.1-0.1,0.2
		c-0.1,0.1-0.2,0.1-0.3,0.1c-0.1,0-0.2,0-0.2,0c-0.1,0-0.1-0.1-0.1-0.2c0-0.1,0-0.1-0.1-0.2c0-0.1-0.3-0.5-0.4-0.7
		c-0.1-0.2-0.2-0.4-0.3-0.6c0.1-0.1,0.2,0,0.3,0c0,0,0.1,0.1,0.1,0.1c0.1,0.1,0.1,0.2,0.2,0.2c0.1,0.1,0.2,0.3,0.4,0.3
		c0.1,0,0.1,0,0.2,0c0.1,0,0.1,0,0.2,0.1c0,0,0.1,0,0.1,0.1c0,0,0,0.1,0.1,0.1C-89-149.5-89-149.3-89.1-149.1L-89.1-149.1z"/>
	<path class="st11" d="M-96.8-146.3c0.2,0,0.3-0.1,0.5-0.1c0.2,0,0.4,0.2,0.6,0.3c0.2,0.2,0.4,0.4,0.6,0.6c0.4,0.6,0.5,1.3,0.5,2
		c0,0.7-0.2,1.4-0.2,2c-0.1,0.7-0.1,1.4,0,2.1c-1.6-0.2-3.2-0.2-4.7,0.2c1-1.5,1.6-3.4,1.3-5.1c-0.1-0.5-0.3-1.1,0.1-1.5
		c0.2-0.2,0.5-0.3,0.8-0.4C-97.3-146.2-97.1-146.2-96.8-146.3L-96.8-146.3z"/>
	<path class="st12" d="M-96.8-143.5C-96.8-143.5-96.8-143.4-96.8-143.5c-0.1,0-0.1,0.1-0.1,0.2c0.2,1,0.1,2-0.2,3
		c0.6-0.4,1.3,0,2-0.2c-0.2-0.4-0.1-0.9-0.1-1.4c0-0.6,0.1-1.3,0-1.9C-95.7-143.8-96.3-143.5-96.8-143.5z"/>
	<path class="st13" d="M-97.9-145.2c0,0.5,0.1,0.9,0.3,1.4c0.2,0.5,0.6,1,1.2,1.2c0.6,0.2,1.1,0.1,1.4-0.4c0.1-0.2,0.2-0.6,0.2-0.8
		c0-0.7-0.2-1.4-0.6-1.8c-0.3-0.3-0.6-0.6-1-0.7s-0.9,0.1-1.2,0.5C-97.8-145.5-97.8-145.5-97.9-145.2L-97.9-145.2z"/>
	<path class="st7" d="M-95.6-143.5c-0.1,0.1-0.2,0.1-0.3,0.2c-0.2,0-0.4,0.1-0.5,0c-0.2,0-0.3-0.1-0.4-0.3c0.1,0,0.2,0,0.3,0
		c0.5-0.1,0.9-0.5,1.3-0.9c0,0.2,0,0.4-0.1,0.6C-95.4-143.8-95.5-143.6-95.6-143.5L-95.6-143.5z"/>
	<g>
		<path class="st4" d="M-98.1-138.5c0.4-1.8,0.4-2.2,0.4-4.1c0-0.4,0.2-2.1,0.5-2.6c0.4-0.7,0.8-0.8,1.2-1c-0.9-0.8-2.1,0.1-2.4,0.5
			c-0.3,0.5-0.3,1.1-0.3,1.6c-0.1,1.8-0.4,3.7-0.7,5.5C-99-138.6-98.6-138.6-98.1-138.5L-98.1-138.5z"/>
		<path class="st4" d="M-97.5-143.1C-97.5-143.1-97.5-143.1-97.5-143.1C-97.5-143.1-97.5-143.1-97.5-143.1c0-0.7,0.1-1.3,0.4-2
			c0.2-0.5,0.6-0.9,0.8-1.1c0,0,0,0,0,0c0,0,0,0,0,0c-0.2,0.1-0.6,0.6-0.8,1C-97.3-144.4-97.4-143.8-97.5-143.1
			C-97.4-143.1-97.4-143.1-97.5-143.1L-97.5-143.1z"/>
		<path class="st4" d="M-97.2-143.4C-97.2-143.4-97.2-143.4-97.2-143.4C-97.3-143.4-97.3-143.4-97.2-143.4c0.1-1,0.5-2.1,1.1-2.8
			c0,0,0,0,0,0c0,0,0,0,0,0C-96.6-145.5-97.1-144.4-97.2-143.4C-97.2-143.4-97.2-143.4-97.2-143.4z"/>
		<path class="st4" d="M-99.8-138.5C-99.8-138.5-99.8-138.5-99.8-138.5C-99.8-138.5-99.9-138.6-99.8-138.5c0.1-1.8,0.3-3.4,0.8-5.3
			l0,0c0.1-0.4,0.3-1.1,0.6-1.4c0,0,0,0,0,0c0,0,0,0,0,0c-0.3,0.3-0.5,1-0.6,1.4l0,0C-99.4-141.9-99.7-140.4-99.8-138.5
			C-99.8-138.6-99.8-138.5-99.8-138.5L-99.8-138.5z"/>
	</g>
	<path class="st7" d="M-94.8-141.5c0,0.3,0,0.7-0.1,1c0,0,0,0,0,0c0,0,0,0,0,0c-0.4,0-0.6,1.6-0.9,1.6c-0.4,0-0.9-1.7-1.3-1.6
		c0-0.2,0-0.4,0-0.6c0-0.1,0-0.3,0-0.3s0.1-0.1,0.2-0.1c0.2-0.1,0.5,0.3,0.7,0.2c0.1,0,0.2-0.2,0.3-0.2c0.2,0,0.3,0.2,0.5,0.3
		c0.1,0,0.2,0,0.3-0.1C-95-141.4-94.9-141.5-94.8-141.5L-94.8-141.5z"/>
	<path class="st14" d="M-95.9-145c0.4,0,0.8-0.4,0.8-0.8"/>
	
		<linearGradient id="SVGID_00000045598510831513999410000009117099976203941520_" gradientUnits="userSpaceOnUse" x1="-149.9372" y1="-250.771" x2="-121.591" y2="-250.771" gradientTransform="matrix(1.0957 0 0 1.0933 57.8738 126.7531)">
		<stop  offset="0" style="stop-color:#FFBEB6"/>
		<stop  offset="1" style="stop-color:#F2A19C"/>
	</linearGradient>
	<path style="fill:url(#SVGID_00000045598510831513999410000009117099976203941520_);" d="M-106.4-149.8c0.2,0,0.4,0.2,0.6,0.2
		c0.1,0,0.2,0.1,0.2,0c0.1-0.1,0-0.2,0-0.3c-0.3-0.4-0.9-1.5-0.6-1.4c0.5,0.3,0.5,1.1,1,1.5c0,0,0-0.1,0-0.2
		c-0.2-0.3-0.3-0.5-0.5-0.8c-0.1-0.1-0.2-0.3-0.3-0.4c-0.1-0.1-0.3-0.3-0.2-0.3c0.1-0.1,0.3,0.1,0.4,0.2c0.2,0.2,0.4,0.4,0.5,0.7
		c0.1,0.2,0.2,0.4,0.3,0.6c0.1,0.1,0.1,0.1,0.1,0.1c0,0,0,0,0.1,0c0-0.1,0-0.1,0-0.2c-0.2-0.5-0.7-1.4-0.6-1.4c0.3-0.1,0.8,1,1,1.6
		c0,0.1,0,0.2,0.1,0.2c0.2,0.2,0.4-0.1,0.6-0.3c0.1-0.2,0.4-0.5,0.5-0.4c-0.2,0.6-0.8,1.1-0.7,1.7c0,0.4,0.3,0.7,0.5,1
		c0.8,1,1.3,1.9,2,3c0.1,0.1,0.5,0.8,0.4,0.9c-0.1,0.1-0.2,0-0.3,0c-0.3,0.1-0.5,0.4-0.6,0.7c-1-1.2-1.4-2.7-2.1-4.1
		c-0.1-0.3-0.3-0.7-0.6-0.9c-0.2-0.2-0.4-0.3-0.6-0.5c0,0,0-0.1-0.1-0.1c-0.3-0.2-0.6-0.6-0.8-0.7
		C-106.2-149.6-106.5-149.9-106.4-149.8L-106.4-149.8z"/>
	
		<linearGradient id="SVGID_00000098180513294483784770000002311567538720417945_" gradientUnits="userSpaceOnUse" x1="-136.3135" y1="-247.0306" x2="-143.7837" y2="-227.0918" gradientTransform="matrix(1.0957 0 0 1.0933 57.8738 126.7531)">
		<stop  offset="0" style="stop-color:#428DFC"/>
		<stop  offset="1" style="stop-color:#1D72D8"/>
	</linearGradient>
	<path style="fill:url(#SVGID_00000098180513294483784770000002311567538720417945_);" d="M-91.3-146.5c0.3,0.4,0.7,0.7,1,1.1
		c0.3,0.3,0.6,0.7,0.5,1.1c-0.1,0-0.2-0.1-0.4-0.1c0,0.3,0.3,0.8,0,0.9c-0.2,0.1-0.4-0.1-0.5,0.1c-0.1,0.1-0.2,0.3-0.2,0.5
		c-0.5,1.9-0.8,4.3-1.3,6.2c-0.6-0.9-1.1-2.9-1.6-4.5c0.4-0.6,0.1-1.9,0.8-2.1c0.2-0.1,0.2,0,0.3-0.1c-0.2-0.1-0.2-0.3-0.1-0.4
		c0.1-0.1,0.3-0.1,0.4-0.2c0.1-0.1,0.1-0.3,0.1-0.5C-92.2-145.3-91.7-145.9-91.3-146.5L-91.3-146.5z"/>
	
		<linearGradient id="SVGID_00000176044977975852134250000017963023523766496430_" gradientUnits="userSpaceOnUse" x1="343.4518" y1="-301.0113" x2="351.5112" y2="-321.0865" gradientTransform="matrix(-1.0664 0.2514 0.2508 1.0641 342.4217 94.8091)">
		<stop  offset="0" style="stop-color:#428DFC"/>
		<stop  offset="1" style="stop-color:#1D72D8"/>
	</linearGradient>
	<path style="fill:url(#SVGID_00000176044977975852134250000017963023523766496430_);" d="M-101.9-145.6c-0.2,0.4-0.5,0.9-0.8,1.3
		c-0.2,0.4-0.4,0.8-0.3,1.1c0.1-0.1,0.2-0.1,0.3-0.2c0.1,0.3-0.1,0.8,0.2,0.9c0.2,0,0.4-0.1,0.5,0c0.2,0.1,0.3,0.3,0.3,0.5
		c0.9,1.8,1.3,4.5,2.2,6.2c0.5-1.4,0.7-3.1,1.2-4.4c-0.5-0.5-0.9-2.4-1.7-2.5c-0.2,0-0.1,0-0.3-0.1c0.1-0.2,0.1-0.3,0-0.4
		c-0.1-0.1-0.3,0-0.4-0.1c-0.1-0.1-0.1-0.3-0.2-0.4C-100.9-144.4-101.4-145-101.9-145.6L-101.9-145.6z"/>
	
		<linearGradient id="SVGID_00000181066950021422197770000001448214538252258689_" gradientUnits="userSpaceOnUse" x1="-143.9532" y1="-239.7896" x2="-103.233" y2="-239.7896" gradientTransform="matrix(1.0957 0 0 1.0933 57.8738 126.7531)">
		<stop  offset="0" style="stop-color:#428DFC"/>
		<stop  offset="1" style="stop-color:#1D72D8"/>
	</linearGradient>
	<path style="fill:url(#SVGID_00000181066950021422197770000001448214538252258689_);" d="M-92.2-136.9c0-0.2-0.4-1.6-0.7-2.3
		c-0.3-0.9-0.6-2-0.8-2.1c-0.3-0.1-0.5,0.6-1.1,0.5c-0.1,0.2-0.3,0.5-0.4,0.7c-0.2,0.3-0.3,0.5-0.5,0.8c-0.1-0.2-0.4-0.4-0.6-0.7
		c-0.4-0.4-0.7-0.8-0.7-0.8c-0.5,0-1.1-0.1-1.3,0.2c0,0-0.4,1.7-0.5,2.5c-0.1,0.6-0.6,1.4-0.6,1.8c0,0.5-0.1,2.1-0.2,4.1
		c0.9,1.5,2.5,2.5,4.4,2.5c1.2,0,2.5-0.8,3.2-2.2C-92.1-134.4-92.3-135.8-92.2-136.9L-92.2-136.9z"/>
	<path class="st7" d="M-98.5-136C-98.5-136-98.4-135.9-98.5-136C-98.4-136-98.4-136-98.5-136C-98.4-136-98.4-136-98.5-136
		C-98.5-136-98.5-136-98.5-136z M-97.3-133.3C-97.4-133.3-97.4-133.2-97.3-133.3C-97.3-133.2-97.3-133.2-97.3-133.3
		C-97.3-133.3-97.3-133.3-97.3-133.3C-97.3-133.3-97.3-133.3-97.3-133.3z M-97-133.9C-97-133.9-97-133.9-97-133.9
		C-96.9-133.9-96.9-133.9-97-133.9C-96.9-133.9-96.9-133.9-97-133.9C-96.9-133.9-96.9-133.9-97-133.9z M-98.3-134.6
		C-98.3-134.6-98.2-134.6-98.3-134.6C-98.2-134.6-98.2-134.6-98.3-134.6C-98.2-134.6-98.2-134.6-98.3-134.6
		C-98.3-134.6-98.3-134.6-98.3-134.6L-98.3-134.6z M-97.7-135C-97.6-135-97.6-135-97.7-135C-97.6-135-97.6-135-97.7-135
		C-97.6-135.1-97.6-135.1-97.7-135C-97.7-135.1-97.7-135-97.7-135L-97.7-135z M-95.9-133.1C-95.9-133.1-95.8-133.1-95.9-133.1
		C-95.8-133-95.8-133.1-95.9-133.1C-95.8-133.1-95.8-133.1-95.9-133.1C-95.8-133.1-95.9-133.1-95.9-133.1z M-95.7-133.8
		C-95.7-133.8-95.7-133.8-95.7-133.8C-95.7-133.8-95.7-133.8-95.7-133.8C-95.7-133.8-95.7-133.9-95.7-133.8
		C-95.7-133.9-95.7-133.8-95.7-133.8z M-98.7-135.2C-98.7-135.2-98.6-135.2-98.7-135.2C-98.6-135.2-98.6-135.2-98.7-135.2
		C-98.6-135.2-98.7-135.2-98.7-135.2C-98.7-135.2-98.7-135.2-98.7-135.2z M-98.1-135.5C-98.1-135.5-98.1-135.5-98.1-135.5
		C-98.1-135.5-98-135.5-98.1-135.5C-98.1-135.6-98.1-135.6-98.1-135.5C-98.1-135.5-98.1-135.5-98.1-135.5z M-96.4-133.5
		C-96.4-133.5-96.4-133.5-96.4-133.5C-96.4-133.5-96.4-133.5-96.4-133.5C-96.4-133.5-96.4-133.5-96.4-133.5
		C-96.4-133.5-96.4-133.5-96.4-133.5z M-96.3-134.2C-96.3-134.1-96.3-134.1-96.3-134.2C-96.2-134.1-96.2-134.1-96.3-134.2
		C-96.2-134.2-96.2-134.2-96.3-134.2C-96.3-134.2-96.3-134.2-96.3-134.2z M-97.6-134.4C-97.6-134.4-97.6-134.4-97.6-134.4
		C-97.5-134.4-97.5-134.4-97.6-134.4C-97.5-134.4-97.5-134.4-97.6-134.4C-97.5-134.5-97.6-134.5-97.6-134.4z M-99-134.6
		C-99-134.5-99-134.5-99-134.6C-99-134.5-99-134.5-99-134.6C-99-134.5-99-134.6-99-134.6C-99-134.6-99-134.6-99-134.6z M-98.6-135.2
		C-98.6-135.2-98.6-135.1-98.6-135.2C-98.5-135.1-98.5-135.1-98.6-135.2C-98.5-135.2-98.5-135.2-98.6-135.2
		C-98.5-135.2-98.5-135.2-98.6-135.2z M-98.1-135.8C-98.1-135.8-98.1-135.8-98.1-135.8C-98.1-135.7-98.1-135.8-98.1-135.8
		C-98-135.8-98-135.8-98.1-135.8C-98.1-135.8-98.1-135.8-98.1-135.8z M-95.9-133.8C-95.9-133.7-95.9-133.7-95.9-133.8
		C-95.8-133.7-95.8-133.8-95.9-133.8C-95.8-133.8-95.8-133.8-95.9-133.8C-95.9-133.8-95.9-133.8-95.9-133.8z M-98.5-136.8
		C-98.5-136.8-98.5-136.8-98.5-136.8 M-97.5-134.2C-97.5-134.2-97.5-134.2-97.5-134.2C-97.5-134.2-97.4-134.2-97.5-134.2
		C-97.4-134.2-97.4-134.2-97.5-134.2C-97.5-134.2-97.5-134.2-97.5-134.2z M-98-134.2C-98-134.2-98-134.2-98-134.2
		C-98-134.2-98-134.2-98-134.2C-98-134.2-98-134.2-98-134.2C-98-134.2-98-134.2-98-134.2z M-97.8-134.9
		C-97.8-134.9-97.8-134.9-97.8-134.9C-97.8-134.9-97.8-134.9-97.8-134.9C-97.7-134.9-97.8-135-97.8-134.9
		C-97.8-135-97.8-135-97.8-134.9L-97.8-134.9z M-98.8-135.9C-98.8-135.9-98.8-135.9-98.8-135.9C-98.7-135.9-98.7-135.9-98.8-135.9
		C-98.7-135.9-98.7-135.9-98.8-135.9C-98.7-135.9-98.7-135.9-98.8-135.9L-98.8-135.9z M-98.5-136C-98.5-136-98.5-136-98.5-136
		C-98.4-136-98.4-136-98.5-136C-98.4-136-98.4-136-98.5-136C-98.4-136-98.5-136-98.5-136z"/>
	
		<linearGradient id="SVGID_00000149380183290258237910000011279605554982017415_" gradientUnits="userSpaceOnUse" x1="-125.7867" y1="-94.671" x2="-124.2861" y2="-94.671" gradientTransform="matrix(5.7518 0 0 -5.7393 618.7499 -692.9468)">
		<stop  offset="0" style="stop-color:#FFBEB6"/>
		<stop  offset="1" style="stop-color:#F2A19C"/>
	</linearGradient>
	<path style="fill:url(#SVGID_00000149380183290258237910000011279605554982017415_);" d="M-104.7-148.9c0,0.1,0,0.1,0.1,0.1
		c0.1,0.1,0.2,0.1,0.3,0.1c0.1,0,0.2,0,0.2,0c0.1,0,0.1-0.1,0.1-0.2c0-0.1,0-0.1,0.1-0.2c0-0.1,0.2-0.6,0.4-0.7
		c0.1-0.2,0.2-0.4,0.3-0.6c-0.1-0.1-0.2,0-0.3,0.1c0,0-0.1,0.1-0.1,0.1c-0.1,0.1-0.1,0.2-0.2,0.3c-0.1,0.1-0.2,0.3-0.4,0.3
		c-0.1,0-0.1,0-0.2,0c-0.1,0-0.1,0-0.1,0.1c0,0-0.1,0-0.1,0.1c0,0,0,0.1,0,0.1C-104.8-149.3-104.8-149.1-104.7-148.9L-104.7-148.9z"
		/>
</g>
<g transform="translate(1023.75 2171.25) rotate(-9.341912948055517 163.125 163.125)  scale(15.333458664285377 15.318339750211289)">
	<g>
		<path class="st2" d="M-39.2-141.8l-1.3,0.2c0,0,0,0.1,0,0.1c0,0,0,0.1,0,0.1l1.4-0.3C-39.1-141.7-39.2-141.8-39.2-141.8z"/>
		<path class="st2" d="M-39.8-142.2l-0.3,0.1c-0.2,0.1-0.3,0.2-0.4,0.3l1.1-0.2C-39.5-142.1-39.6-142.2-39.8-142.2z"/>
		<path class="st2" d="M-39.4-140.9l-0.7,0.1c0.1,0,0.2,0,0.2,0C-39.6-140.7-39.5-140.8-39.4-140.9L-39.4-140.9z"/>
		<path class="st2" d="M-39.1-141.4l-1.4,0.3c0,0.1,0.1,0.2,0.2,0.2l1.1-0.2C-39.1-141.2-39.1-141.3-39.1-141.4z"/>
	</g>
</g>
<g transform="translate(2373.75 1391.25) rotate(20.46799402157321 93.75 93.75)  scale(1.875 1.875)">
	<path class="st4" d="M-1373.2-207.8c-0.6,0-1.1,0.2-1.4,0.6c-0.4-0.4-0.9-0.6-1.4-0.6c-1.1,0-2,0.9-2,2c0,1.7,2.3,3.5,3.4,3.9
		c1.1-0.4,3.4-2.3,3.4-3.9C-1371.3-206.9-1372.1-207.8-1373.2-207.8z"/>
</g>
<g transform="translate(2088.75 2100.0) rotate(-27.15550436490495 50.625 50.625)  scale(1.0125 1.0125)">
	<path class="st4" d="M-829.6-2627.4c-0.6,0-1.1,0.2-1.4,0.6c-0.4-0.4-0.9-0.6-1.4-0.6c-1.1,0-2,0.9-2,2c0,1.7,2.3,3.5,3.4,3.9
		c1.1-0.4,3.4-2.3,3.4-3.9C-827.6-2626.5-828.5-2627.4-829.6-2627.4z"/>
</g>
<g transform="translate(588.75 1848.75) rotate(19.234575361973537 78.75 78.75)  scale(1.575 1.575)">
	<path class="st4" d="M-718-891c-0.6,0-1.1,0.2-1.4,0.6c-0.4-0.4-0.9-0.6-1.4-0.6c-1.1,0-2,0.9-2,2c0,1.7,2.3,3.5,3.4,3.9
		c1.1-0.4,3.4-2.3,3.4-3.9C-716.1-890.2-717-891-718-891z"/>
</g>
</svg>
