<?xml version="1.0" encoding="utf-8"?>
<!-- Generator: Adobe Illustrator 26.3.1, SVG Export Plug-In . SVG Version: 6.00 Build 0)  -->
<svg version="1.1" id="Layer_1" xmlns="http://www.w3.org/2000/svg" xmlns:xlink="http://www.w3.org/1999/xlink" x="0px" y="0px"
	 viewBox="0 0 16 11" style="enable-background:new 0 0 16 11;" xml:space="preserve">
<style type="text/css">
	.st0{fill:#12141D;fill-rule:evenodd;clip-rule:evenodd;}
</style>
<path id="telegram-1" class="st0" d="M10.7,10.9c0.2,0.1,0.4,0.2,0.6,0.1c0.2-0.1,0.4-0.3,0.4-0.5c0.5-2.2,1.6-7.9,2.1-10
	c0-0.2,0-0.3-0.1-0.4C13.6,0,13.4,0,13.2,0C10.9,0.9,3.8,3.5,0.9,4.6C0.7,4.7,0.6,4.9,0.6,5.1c0,0.2,0.1,0.4,0.3,0.4
	c1.3,0.4,3,0.9,3,0.9S4.8,8.8,5.2,10c0.1,0.2,0.2,0.3,0.3,0.3c0.2,0,0.3,0,0.4-0.1c0.7-0.6,1.7-1.6,1.7-1.6S9.6,10.1,10.7,10.9z
	 M4.7,6.1l0.9,3l0.2-1.9c0,0,3.6-3.2,5.6-5.1c0.1-0.1,0.1-0.1,0-0.2c0-0.1-0.1-0.1-0.2,0C8.9,3.4,4.7,6.1,4.7,6.1z"/>
</svg>
