<svg width="16" height="17" viewBox="0 0 16 17" fill="none" xmlns="http://www.w3.org/2000/svg">
<path d="M4.9,7C5.4,8,6,9,6.8,9.8c0.8,0.9,1.7,1.7,2.9,2.4c0.1,0,0.2,0,0.3,0c0.1,0,0.2-0.2,0.4-0.3
		c0.1-0.1,0.2-0.3,0.3-0.4c0.5-0.7,1.1-1.5,1.9-1.1c0,0,0,0,0.1,0l2.7,1.7c0,0,0,0,0,0c0.4,0.3,0.5,0.7,0.5,1.2c0,0.5-0.2,1-0.4,1.5
		c-0.3,0.6-0.8,1-1.3,1.3c-0.5,0.3-1.1,0.4-1.6,0.5c-0.9,0.1-1.7,0-2.5-0.2c-0.8-0.3-1.6-0.7-2.5-1.3l-0.1,0
		c-0.4-0.3-0.8-0.6-1.3-0.9C4.6,12.8,3,10.9,2,8.8C1.1,7.1,0.6,5.3,0.9,3.5C1,2.5,1.4,1.6,2.1,1c0.6-0.5,1.4-0.8,2.4-0.7
		c0.1,0,0.2,0.1,0.3,0.2l1.8,3.2c0.3,0.4,0.3,0.7,0.1,1.1C6.5,5.1,6.3,5.4,5.9,5.7C5.9,5.8,5.7,5.9,5.6,5.9C5.2,6.3,4.8,6.6,4.9,7
		L4.9,7L4.9,7L4.9,7z" fill="#12141D"/>
</svg>
