<?xml version="1.0" encoding="utf-8"?>
<!-- Generator: Adobe Illustrator 26.3.1, SVG Export Plug-In . SVG Version: 6.00 Build 0)  -->
<svg version="1.1" id="Layer_1" xmlns="http://www.w3.org/2000/svg" xmlns:xlink="http://www.w3.org/1999/xlink" x="0px" y="0px"
	 viewBox="0 0 264.7 83.1" style="enable-background:new 0 0 264.7 83.1;" xml:space="preserve">
<style type="text/css">
	.st0{clip-path:url(#SVGID_00000082354191282879448530000012480329047426899901_);}
	.st1{clip-path:url(#SVGID_00000132071188805878716080000001294361722900098996_);}
	.st2{clip-path:url(#SVGID_00000090283617951055294910000002873831905526128782_);}
</style>
<g>
	
		<image style="display:none;overflow:visible;enable-background:new    ;" width="1248" height="1142" xlink:href="AFE6352391618CF6.png"  transform="matrix(0.24 0 0 0.24 -13.1823 15.563)">
	</image>
	<g>
		<defs>
			<polygon id="SVGID_1_" points="55.6,13.3 196.4,13.3 196.4,20.1 55.6,20.1 55.6,13.3 			"/>
		</defs>
		<clipPath id="SVGID_00000103225725861435447410000000774867457070073521_">
			<use xlink:href="#SVGID_1_"  style="overflow:visible;"/>
		</clipPath>
		<g style="clip-path:url(#SVGID_00000103225725861435447410000000774867457070073521_);">
			
				<image style="overflow:visible;enable-background:new    ;" width="1248" height="1142" xlink:href="AFE6352391618CF1.png"  transform="matrix(0.24 0 0 0.24 -13.3273 -66.5828)">
			</image>
		</g>
	</g>
	<g>
		<defs>
			<path id="SVGID_00000116201578596615517210000016301211488555508403_" d="M66.6,72.2V28.8h6.8V66h5.6V28.8h6.8V66h5.5V28.8h6.9
				v43.4L66.6,72.2L66.6,72.2z M125.7,72.2l-1.2-7.9h-8.4l-1.2,7.9h-6.3l6.9-43.4h10l6.9,43.4H125.7L125.7,72.2z M120.3,36.5
				l-3.3,22h6.6L120.3,36.5L120.3,36.5L120.3,36.5z M157.7,72.2V53.6h-7.8v18.6h-6.8V28.8h6.8v18.6h7.8V28.8h6.9v43.4H157.7z
				 M196.7,56v5.8c0,3.5-0.9,6.2-2.6,8.1c-1.7,1.9-4.2,2.8-7.6,2.8s-5.9-0.9-7.6-2.8c-1.7-1.9-2.6-4.6-2.6-8.1V39.2
				c0-3.5,0.9-6.2,2.6-8.1c1.7-1.9,4.2-2.8,7.6-2.8s5.9,0.9,7.6,2.8c1.7,1.9,2.6,4.6,2.6,8.1v4.2h-6.4v-4.7c0-1.6-0.3-2.7-1-3.3
				s-1.5-1-2.6-1s-1.9,0.3-2.6,1c-0.6,0.6-1,1.8-1,3.3v23.4c0,1.6,0.3,2.7,1,3.3s1.5,0.9,2.6,0.9s1.9-0.3,2.6-0.9
				c0.6-0.6,1-1.7,1-3.3V56L196.7,56L196.7,56z"/>
		</defs>
		<clipPath id="SVGID_00000111165616938492905860000001925335663451887495_">
			<use xlink:href="#SVGID_00000116201578596615517210000016301211488555508403_"  style="overflow:visible;"/>
		</clipPath>
		<g style="clip-path:url(#SVGID_00000111165616938492905860000001925335663451887495_);">
			
				<image style="overflow:visible;enable-background:new    ;" width="1248" height="1142" xlink:href="AFE6352391618CF0.png"  transform="matrix(0.24 0 0 0.24 -13.3273 -66.5828)">
			</image>
		</g>
	</g>
	<g>
		<defs>
			<polygon id="SVGID_00000008149611031970054450000018444132103484165019_" points="66.6,4.5 73.3,4.5 73.3,39.7 66.6,39.7 
				66.6,4.5 			"/>
		</defs>
		<clipPath id="SVGID_00000174577082342873454150000004248016018128452514_">
			<use xlink:href="#SVGID_00000008149611031970054450000018444132103484165019_"  style="overflow:visible;"/>
		</clipPath>
		<g style="clip-path:url(#SVGID_00000174577082342873454150000004248016018128452514_);">
			
				<image style="overflow:visible;enable-background:new    ;" width="1248" height="1142" xlink:href="AFE6352391618CFF.png"  transform="matrix(0.24 0 0 0.24 -13.3273 -66.5828)">
			</image>
		</g>
	</g>
</g>
</svg>
